<?xml version="1.0" encoding="utf-8"?>
<!-- Generator: Adobe Illustrator 27.5.0, SVG Export Plug-In . SVG Version: 6.00 Build 0)  -->
<svg version="1.1" id="_x3C_Layer_x3E_" xmlns="http://www.w3.org/2000/svg" xmlns:xlink="http://www.w3.org/1999/xlink" x="0px"
	 y="0px" viewBox="0 0 2827.762 1820.014" style="enable-background:new 0 0 2827.762 1820.014;" xml:space="preserve">
<linearGradient id="SVGID_1_" gradientUnits="userSpaceOnUse" x1="1953.0322" y1="913.6996" x2="1953.0322" y2="2310.3386">
	<stop  offset="0" style="stop-color:#F2F2F2"/>
	<stop  offset="1" style="stop-color:#FCFCFC"/>
</linearGradient>
<rect x="1078.313" y="1194.766" style="fill:url(#SVGID_1_);" width="1749.438" height="614.872"/>
<linearGradient id="SVGID_00000060733853870775439200000001775253892073296295_" gradientUnits="userSpaceOnUse" x1="1703.8887" y1="1449.8193" x2="2634.666" y2="1449.8193">
	<stop  offset="0" style="stop-color:#DBDBE6"/>
	<stop  offset="1" style="stop-color:#FFFFFF"/>
</linearGradient>
<polygon style="fill:url(#SVGID_00000060733853870775439200000001775253892073296295_);" points="1703.889,1240.972 
	1703.889,1395.6 1764.133,1395.6 1764.133,1499.019 1834.418,1499.019 1834.418,1412.668 1888.638,1412.668 1888.638,1536.17 
	1877.594,1536.17 1877.594,1556.251 2002.1,1556.251 2002.1,1535.165 1990.051,1535.165 1990.051,1416.685 2019.168,1416.685 
	2019.168,1388.571 2072.385,1388.571 2072.385,1605.451 2125.601,1658.667 2143.674,1640.593 2161.355,1640.593 2161.355,1339.37 
	2221.991,1339.37 2221.991,1363.469 2268.18,1409.656 2305.329,1409.656 2305.329,1339.37 2343.484,1339.37 2343.484,1520.105 
	2404.732,1520.105 2404.732,1389.575 2454.938,1389.575 2454.938,1291.175 2521.206,1291.175 2521.206,1399.615 2634.666,1399.615 
	2634.666,1240.972 "/>
<g>
	
		<linearGradient id="SVGID_00000041975600143139604390000015157873890191910840_" gradientUnits="userSpaceOnUse" x1="1820.8633" y1="-11159.7891" x2="1820.8633" y2="-10798.4873" gradientTransform="matrix(1 0 0 -1 0 -9774.6748)">
		<stop  offset="0" style="stop-color:#FCFCFC"/>
		<stop  offset="1" style="stop-color:#FDFDFD"/>
	</linearGradient>
	
		<rect x="1807.309" y="1240.972" style="fill:url(#SVGID_00000041975600143139604390000015157873890191910840_);" width="27.109" height="258.047"/>
	
		<linearGradient id="SVGID_00000146486210777003890520000015638416594233373099_" gradientUnits="userSpaceOnUse" x1="1918.2588" y1="-11159.7891" x2="1918.2588" y2="-10798.4883" gradientTransform="matrix(1 0 0 -1 0 -9774.6748)">
		<stop  offset="0" style="stop-color:#FCFCFC"/>
		<stop  offset="1" style="stop-color:#FDFDFD"/>
	</linearGradient>
	<polygon style="fill:url(#SVGID_00000146486210777003890520000015638416594233373099_);" points="1946.205,1556.251 
		1946.205,1329.999 1886.631,1329.999 1886.631,1275.779 1834.418,1275.779 1834.418,1240.972 1990.051,1240.972 1990.051,1535.165 
		2002.1,1535.165 2002.1,1556.251 	"/>
	
		<linearGradient id="SVGID_00000014612521713053590180000001981150681101890443_" gradientUnits="userSpaceOnUse" x1="2075.7031" y1="973.0599" x2="2075.7031" y2="1698.5715">
		<stop  offset="0" style="stop-color:#FCFCFC"/>
		<stop  offset="1" style="stop-color:#FDFDFD"/>
	</linearGradient>
	<polygon style="fill:url(#SVGID_00000014612521713053590180000001981150681101890443_);" points="2125.601,1658.667 
		2125.601,1302.221 2073.389,1302.221 2073.389,1388.571 2044.27,1388.571 2044.27,1312.261 1990.051,1312.261 1990.051,1240.972 
		2161.355,1240.972 2161.355,1640.593 2143.674,1640.593 	"/>
	
		<linearGradient id="SVGID_00000003082090432610299520000016839936903039671216_" gradientUnits="userSpaceOnUse" x1="2233.3423" y1="973.0601" x2="2233.3423" y2="1698.5708">
		<stop  offset="0" style="stop-color:#FCFCFC"/>
		<stop  offset="1" style="stop-color:#FDFDFD"/>
	</linearGradient>
	<polygon style="fill:url(#SVGID_00000003082090432610299520000016839936903039671216_);" points="2268.18,1409.656 
		2268.18,1314.27 2234.793,1280.884 2208.938,1280.884 2208.938,1263.563 2161.355,1263.563 2161.355,1240.972 2305.329,1240.972 
		2305.329,1409.656 	"/>
	
		<linearGradient id="SVGID_00000137854824687634200680000009656954612329177483_" gradientUnits="userSpaceOnUse" x1="2391.9307" y1="973.0588" x2="2391.9307" y2="1698.5723">
		<stop  offset="0" style="stop-color:#FCFCFC"/>
		<stop  offset="1" style="stop-color:#FDFDFD"/>
	</linearGradient>
	
		<rect x="2379.129" y="1240.972" style="fill:url(#SVGID_00000137854824687634200680000009656954612329177483_);" width="25.604" height="279.134"/>
	
		<linearGradient id="SVGID_00000053503534017481462490000004764640348431874737_" gradientUnits="userSpaceOnUse" x1="2519.6992" y1="973.0609" x2="2519.6992" y2="1698.5709">
		<stop  offset="0" style="stop-color:#FCFCFC"/>
		<stop  offset="1" style="stop-color:#FDFDFD"/>
	</linearGradient>
	<polygon style="fill:url(#SVGID_00000053503534017481462490000004764640348431874737_);" points="2634.666,1399.615 
		2587.475,1399.615 2587.475,1281.134 2553.336,1281.134 2553.336,1257.706 2404.732,1257.706 2404.732,1240.972 2634.666,1240.972 
			"/>
	
		<linearGradient id="SVGID_00000127045067235613079000000000545141547517793933_" gradientUnits="userSpaceOnUse" x1="2431.4668" y1="973.0598" x2="2431.4668" y2="1698.5712">
		<stop  offset="0" style="stop-color:#FCFCFC"/>
		<stop  offset="1" style="stop-color:#FDFDFD"/>
	</linearGradient>
	<polygon style="fill:url(#SVGID_00000127045067235613079000000000545141547517793933_);" points="2454.938,1389.575 
		2435.357,1389.575 2435.357,1277.62 2407.996,1250.26 2454.938,1250.26 	"/>
	
		<linearGradient id="SVGID_00000123433086035303522250000001728669586246922370_" gradientUnits="userSpaceOnUse" x1="1750.0762" y1="-11159.7891" x2="1750.0762" y2="-10798.4873" gradientTransform="matrix(1 0 0 -1 0 -9774.6748)">
		<stop  offset="0" style="stop-color:#FCFCFC"/>
		<stop  offset="1" style="stop-color:#FDFDFD"/>
	</linearGradient>
	
		<rect x="1736.02" y="1240.972" style="fill:url(#SVGID_00000123433086035303522250000001728669586246922370_);" width="28.113" height="154.628"/>
</g>
<rect x="811.06" y="0.014" style="fill:#FFFFFF;" width="2016.687" height="1240.527"/>
<linearGradient id="SVGID_00000168821791282369464510000008877613123906719419_" gradientUnits="userSpaceOnUse" x1="1819.3994" y1="1853.5469" x2="1819.3994" y2="356.3753">
	<stop  offset="0" style="stop-color:#EEEEFA"/>
	<stop  offset="1" style="stop-color:#FFFFFF"/>
</linearGradient>
<path style="fill:url(#SVGID_00000168821791282369464510000008877613123906719419_);" d="M2827.734,1194.285v41.423
	c-2.33,0.874-4.877,1.711-7.68,2.511c-1.82,0.511-3.713,1.057-5.715,1.529c-9.429,2.294-21.259,4.368-35.964,6.043
	c-11.721,1.311-39.857,2.293-79.534,3.604c-3.566,0.146-7.242,0.291-10.992,0.4c-43.389,1.492-98.79,3.494-160.852,6.808
	c-3.641,0.218-7.316,0.399-10.993,0.618c-38.474,2.147-79.278,4.805-121.175,8.19c-3.678,0.327-7.354,0.618-11.029,0.909
	c-52.854,4.404-107.271,9.974-160.816,17.108c-3.676,0.509-7.352,1.02-11.028,1.492c-41.388,5.715-82.191,12.34-121.175,20.129
	c-3.678,0.728-7.354,1.457-10.994,2.221c-31.668,6.516-62.098,13.796-90.6,21.986c-6.843,1.928-13.613,3.931-20.238,6.042
	c-5.751,1.783-11.393,3.604-16.963,5.46c-172.463,57.875-254.107,153.79-74.837,314.351
	c51.323,46.009,124.087,97.297,222.222,154.518H811.064v-621.821h2005.387c0,0,1.383,0.691,3.604,1.93
	C2822.093,1190.827,2824.786,1192.393,2827.734,1194.285z"/>
<linearGradient id="SVGID_00000004515991077318827700000007673697297201693613_" gradientUnits="userSpaceOnUse" x1="1274.7573" y1="696.0503" x2="1274.7573" y2="1439.8052">
	<stop  offset="0" style="stop-color:#DBDBE6"/>
	<stop  offset="1" style="stop-color:#FFFFFF"/>
</linearGradient>
<polygon style="fill:url(#SVGID_00000004515991077318827700000007673697297201693613_);" points="809.368,1227.67 809.368,1073.043 
	869.612,1073.043 869.612,969.623 939.897,969.623 939.897,1055.973 994.117,1055.973 994.117,932.473 983.072,932.473 
	983.072,912.391 1107.579,912.391 1107.579,933.477 1095.529,933.477 1095.529,1051.957 1124.647,1051.957 1124.647,1080.071 
	1177.864,1080.071 1177.864,863.19 1231.079,809.976 1249.153,828.048 1266.834,828.048 1266.834,1129.271 1327.47,1129.271 
	1327.47,1105.174 1373.658,1058.985 1410.809,1058.985 1410.809,1129.271 1448.964,1129.271 1448.964,948.537 1510.213,948.537 
	1510.213,1079.066 1560.416,1079.066 1560.416,1177.467 1626.685,1177.467 1626.685,1069.025 1740.146,1069.025 1740.146,1227.67 
	"/>
<g>
	
		<linearGradient id="SVGID_00000134251162653233867570000000229290447605345675_" gradientUnits="userSpaceOnUse" x1="926.3422" y1="1400.3706" x2="926.3422" y2="634.2139">
		<stop  offset="0" style="stop-color:#FCFCFC"/>
		<stop  offset="1" style="stop-color:#FDFDFD"/>
	</linearGradient>
	
		<rect x="912.787" y="969.623" style="fill:url(#SVGID_00000134251162653233867570000000229290447605345675_);" width="27.11" height="258.047"/>
	
		<linearGradient id="SVGID_00000047773191802253568300000018219091997850855103_" gradientUnits="userSpaceOnUse" x1="1023.7382" y1="1650.7463" x2="1023.7382" y2="762.6613">
		<stop  offset="0" style="stop-color:#FCFCFC"/>
		<stop  offset="1" style="stop-color:#FDFDFD"/>
	</linearGradient>
	<polygon style="fill:url(#SVGID_00000047773191802253568300000018219091997850855103_);" points="1051.685,912.391 
		1051.685,1138.643 992.11,1138.643 992.11,1192.862 939.897,1192.862 939.897,1227.67 1095.529,1227.67 1095.529,933.477 
		1107.579,933.477 1107.579,912.391 	"/>
	
		<linearGradient id="SVGID_00000157303823828638885560000004998539337473511828_" gradientUnits="userSpaceOnUse" x1="1181.1816" y1="1650.7441" x2="1181.1816" y2="762.6592">
		<stop  offset="0" style="stop-color:#FCFCFC"/>
		<stop  offset="1" style="stop-color:#FDFDFD"/>
	</linearGradient>
	<polygon style="fill:url(#SVGID_00000157303823828638885560000004998539337473511828_);" points="1231.079,809.976 
		1231.079,1166.422 1178.868,1166.422 1178.868,1080.071 1149.75,1080.071 1149.75,1156.381 1095.529,1156.381 1095.529,1227.67 
		1266.834,1227.67 1266.834,828.048 1249.153,828.048 	"/>
	
		<linearGradient id="SVGID_00000017490532644789011490000004574141086405330082_" gradientUnits="userSpaceOnUse" x1="1338.8213" y1="1650.7458" x2="1338.8213" y2="762.6607">
		<stop  offset="0" style="stop-color:#FCFCFC"/>
		<stop  offset="1" style="stop-color:#FDFDFD"/>
	</linearGradient>
	<polygon style="fill:url(#SVGID_00000017490532644789011490000004574141086405330082_);" points="1373.658,1058.985 
		1373.658,1154.373 1340.272,1187.758 1314.417,1187.758 1314.417,1205.078 1266.834,1205.078 1266.834,1227.67 1410.809,1227.67 
		1410.809,1058.985 	"/>
	
		<linearGradient id="SVGID_00000117637962340466776130000007448640308610345402_" gradientUnits="userSpaceOnUse" x1="1497.4106" y1="1650.7458" x2="1497.4106" y2="762.6598">
		<stop  offset="0" style="stop-color:#FCFCFC"/>
		<stop  offset="1" style="stop-color:#FDFDFD"/>
	</linearGradient>
	
		<rect x="1484.608" y="948.537" style="fill:url(#SVGID_00000117637962340466776130000007448640308610345402_);" width="25.604" height="279.133"/>
	
		<linearGradient id="SVGID_00000116214000910681149860000010025456155808677767_" gradientUnits="userSpaceOnUse" x1="1625.1797" y1="1650.7478" x2="1625.1797" y2="762.6575">
		<stop  offset="0" style="stop-color:#FCFCFC"/>
		<stop  offset="1" style="stop-color:#FDFDFD"/>
	</linearGradient>
	<polygon style="fill:url(#SVGID_00000116214000910681149860000010025456155808677767_);" points="1740.146,1069.025 
		1676.958,1069.025 1676.958,1187.507 1658.814,1187.507 1658.814,1210.936 1510.213,1210.936 1510.213,1227.67 1740.146,1227.67 	
		"/>
	
		<linearGradient id="SVGID_00000011712880804311992250000015434033739967525252_" gradientUnits="userSpaceOnUse" x1="1536.9463" y1="1650.7457" x2="1536.9463" y2="762.6602">
		<stop  offset="0" style="stop-color:#FCFCFC"/>
		<stop  offset="1" style="stop-color:#FDFDFD"/>
	</linearGradient>
	<polygon style="fill:url(#SVGID_00000011712880804311992250000015434033739967525252_);" points="1560.416,1079.066 
		1540.837,1079.066 1540.837,1191.021 1513.476,1218.382 1560.416,1218.382 	"/>
	
		<linearGradient id="SVGID_00000173146601943536075980000000040326169202841766_" gradientUnits="userSpaceOnUse" x1="855.5552" y1="1400.3696" x2="855.5552" y2="634.215">
		<stop  offset="0" style="stop-color:#FCFCFC"/>
		<stop  offset="1" style="stop-color:#FDFDFD"/>
	</linearGradient>
	
		<rect x="841.498" y="1073.043" style="fill:url(#SVGID_00000173146601943536075980000000040326169202841766_);" width="28.114" height="154.627"/>
</g>
<linearGradient id="SVGID_00000173132727110245114630000008522580322705644442_" gradientUnits="userSpaceOnUse" x1="2169.2773" y1="696.0503" x2="2169.2773" y2="1439.8052">
	<stop  offset="0" style="stop-color:#DBDBE6"/>
	<stop  offset="1" style="stop-color:#FFFFFF"/>
</linearGradient>
<polygon style="fill:url(#SVGID_00000173132727110245114630000008522580322705644442_);" points="1703.889,1227.67 
	1703.889,1073.043 1764.133,1073.043 1764.133,969.623 1834.418,969.623 1834.418,1055.973 1888.638,1055.973 1888.638,932.473 
	1877.594,932.473 1877.594,912.391 2002.1,912.391 2002.1,933.477 1990.051,933.477 1990.051,1051.957 2019.168,1051.957 
	2019.168,1080.071 2072.385,1080.071 2072.385,863.19 2125.601,809.976 2143.674,828.048 2161.355,828.048 2161.355,1129.271 
	2221.991,1129.271 2221.991,1105.174 2268.18,1058.985 2305.329,1058.985 2305.329,1129.271 2343.484,1129.271 2343.484,948.537 
	2404.732,948.537 2404.732,1079.066 2454.938,1079.066 2454.938,1177.467 2521.206,1177.467 2521.206,1069.025 2634.666,1069.025 
	2634.666,1227.67 "/>
<g>
	
		<linearGradient id="SVGID_00000063607581551775794980000005441008368931780994_" gradientUnits="userSpaceOnUse" x1="1820.8633" y1="1650.7455" x2="1820.8633" y2="762.6616">
		<stop  offset="0" style="stop-color:#FCFCFC"/>
		<stop  offset="1" style="stop-color:#FDFDFD"/>
	</linearGradient>
	
		<rect x="1807.309" y="969.623" style="fill:url(#SVGID_00000063607581551775794980000005441008368931780994_);" width="27.109" height="258.047"/>
	
		<linearGradient id="SVGID_00000026145454562300636540000003985754194918609333_" gradientUnits="userSpaceOnUse" x1="1918.2588" y1="1650.7463" x2="1918.2588" y2="762.6613">
		<stop  offset="0" style="stop-color:#FCFCFC"/>
		<stop  offset="1" style="stop-color:#FDFDFD"/>
	</linearGradient>
	<polygon style="fill:url(#SVGID_00000026145454562300636540000003985754194918609333_);" points="1946.205,912.391 
		1946.205,1138.643 1886.631,1138.643 1886.631,1192.862 1834.418,1192.862 1834.418,1227.67 1990.051,1227.67 1990.051,933.477 
		2002.1,933.477 2002.1,912.391 	"/>
	
		<linearGradient id="SVGID_00000163069947222823882010000017172031095283204252_" gradientUnits="userSpaceOnUse" x1="2075.7031" y1="1650.7441" x2="2075.7031" y2="762.6592">
		<stop  offset="0" style="stop-color:#FCFCFC"/>
		<stop  offset="1" style="stop-color:#FDFDFD"/>
	</linearGradient>
	<polygon style="fill:url(#SVGID_00000163069947222823882010000017172031095283204252_);" points="2125.601,809.976 
		2125.601,1166.422 2073.389,1166.422 2073.389,1080.071 2044.27,1080.071 2044.27,1156.381 1990.051,1156.381 1990.051,1227.67 
		2161.355,1227.67 2161.355,828.048 2143.674,828.048 	"/>
	
		<linearGradient id="SVGID_00000091719455475335640560000010534972486898961820_" gradientUnits="userSpaceOnUse" x1="2233.3423" y1="1650.7458" x2="2233.3423" y2="762.6607">
		<stop  offset="0" style="stop-color:#FCFCFC"/>
		<stop  offset="1" style="stop-color:#FDFDFD"/>
	</linearGradient>
	<polygon style="fill:url(#SVGID_00000091719455475335640560000010534972486898961820_);" points="2268.18,1058.985 
		2268.18,1154.373 2234.793,1187.758 2208.938,1187.758 2208.938,1205.078 2161.355,1205.078 2161.355,1227.67 2305.329,1227.67 
		2305.329,1058.985 	"/>
	
		<linearGradient id="SVGID_00000040535592229501425630000016272001528077908148_" gradientUnits="userSpaceOnUse" x1="2391.9307" y1="1650.7458" x2="2391.9307" y2="762.6598">
		<stop  offset="0" style="stop-color:#FCFCFC"/>
		<stop  offset="1" style="stop-color:#FDFDFD"/>
	</linearGradient>
	
		<rect x="2379.129" y="948.537" style="fill:url(#SVGID_00000040535592229501425630000016272001528077908148_);" width="25.604" height="279.133"/>
	
		<linearGradient id="SVGID_00000026158940823603852940000015251309767716765345_" gradientUnits="userSpaceOnUse" x1="2519.6992" y1="1650.7478" x2="2519.6992" y2="762.6575">
		<stop  offset="0" style="stop-color:#FCFCFC"/>
		<stop  offset="1" style="stop-color:#FDFDFD"/>
	</linearGradient>
	<polygon style="fill:url(#SVGID_00000026158940823603852940000015251309767716765345_);" points="2634.666,1069.025 
		2587.475,1069.025 2587.475,1187.507 2553.336,1187.507 2553.336,1210.936 2404.732,1210.936 2404.732,1227.67 2634.666,1227.67 	
		"/>
	
		<linearGradient id="SVGID_00000078042686497495715350000017593246908649540259_" gradientUnits="userSpaceOnUse" x1="2431.4668" y1="1650.7457" x2="2431.4668" y2="762.6602">
		<stop  offset="0" style="stop-color:#FCFCFC"/>
		<stop  offset="1" style="stop-color:#FDFDFD"/>
	</linearGradient>
	<polygon style="fill:url(#SVGID_00000078042686497495715350000017593246908649540259_);" points="2454.938,1079.066 
		2435.357,1079.066 2435.357,1191.021 2407.996,1218.382 2454.938,1218.382 	"/>
	
		<linearGradient id="SVGID_00000133528372756208376190000015235863858329109948_" gradientUnits="userSpaceOnUse" x1="1750.0762" y1="1650.743" x2="1750.0762" y2="762.6604">
		<stop  offset="0" style="stop-color:#FCFCFC"/>
		<stop  offset="1" style="stop-color:#FDFDFD"/>
	</linearGradient>
	
		<rect x="1736.02" y="1073.043" style="fill:url(#SVGID_00000133528372756208376190000015235863858329109948_);" width="28.113" height="154.627"/>
</g>
<path style="fill:#FAFAFA;" d="M1074.673,1218.616c0,0,79.677-36.217,95.974-25.353c16.298,10.865,90.543-13.12,143.057-2.033
	c52.515,11.088,83.299,36.836,134.002,12.191s110.462-15.195,119.516,0c9.055,15.194,21.73,8.346,79.677,0
	c57.947-8.347,54.325-4.726,130.381,15.194c76.056,19.919,126.054,19.919,126.054,19.919h-828.659V1218.616z"/>
<path style="fill:#FAFAFA;" d="M964.236,1261.473c0,0,18.109-66.397,112.272-33.803c94.164,32.596,114.687,72.434,251.104,67.604
	c136.416-4.829,196.778,60.362,252.31,59.154c55.533-1.207,58.5,25.353,58.5,25.353H940.093L964.236,1261.473z"/>
<linearGradient id="SVGID_00000166639634758058480250000016568242230569763714_" gradientUnits="userSpaceOnUse" x1="2005.7133" y1="1643.3401" x2="2005.7133" y2="970.8156">
	<stop  offset="0" style="stop-color:#DBDBE6"/>
	<stop  offset="1" style="stop-color:#FFFFFF"/>
</linearGradient>
<path style="fill:url(#SVGID_00000166639634758058480250000016568242230569763714_);" d="M2446.901,1238.555
	c-8.008,0.234-103.486,3.387-223.927,16.591c-3.642,0.404-7.305,0.809-11.01,1.235c-93.52,10.606-200.605,27.283-293.038,53.246
	c-3.686,1.021-7.349,2.064-10.99,3.13c-28.603,8.392-55.652,17.677-80.273,28.006c-89.153,37.421-146.529,88.26-130.769,157.328
	c22.874,100.165,140.907,208.678,293.784,311.547h-266.501c-68.559-74.053-123.229-152.451-147.169-229.848
	c-35.333-114.242,6.496-189.317,98.185-239.027c59.228-32.159,139.267-53.734,232.743-68.45c3.642-0.575,7.305-1.13,10.99-1.684
	c88.215-13.269,187.89-20.68,293.038-25.301c3.662-0.171,7.326-0.32,11.01-0.47
	C2295.771,1241.793,2371.081,1240.024,2446.901,1238.555z"/>
<path style="fill:#FAFAFA;" d="M1554.726,1224.049c0,0,56.136,17.202,94.164-13.129c38.027-30.332,132.191-27.615,173.84,0
	c41.649,27.615,92.354,12.091,117.705-1.877c25.353-13.968,74.244-9.951,135.813,4.338c61.567,14.289,61.567-6.216,123.136-4.338
	c61.569,1.877,248.086,29.492,248.086,29.492h-918.096L1554.726,1224.049z"/>
<path style="fill:#FAFAFA;" d="M2218.626,1238.535c0,0,69.958-55.641,106.28-40.25c36.32,15.39,69.339,34.6,94.104,18.779
	c24.764-15.819,64.387-17.207,75.943-3.195s52.908,5.649,74.523,3.195c58.173-6.606,81.488,21.471,81.488,21.471H2218.626z"/>
<path style="fill:#E7E7E7;" d="M1696.934,1809.638H982.92v-78.846c0,0,34.162-62.211,90.176-75.692
	c13.184-3.174,27.603-3.663,43.043,0c10.266,2.428,21.021,6.709,32.203,13.247c99.269,58.079,184.503-13.141,251.869,71.349
	c67.408,84.531,138.351-26.899,257.684,42.383C1673.782,1791.299,1686.54,1800.521,1696.934,1809.638z"/>
<circle style="fill:#FFFFFF;" cx="2018.857" cy="555.609" r="6.32"/>
<path style="fill:#FFFFFF;" d="M2311.65,912.391c0,3.49-2.83,6.32-6.321,6.32c-3.489,0-6.32-2.83-6.32-6.32
	c0-3.491,2.831-6.32,6.32-6.32C2308.82,906.07,2311.65,908.899,2311.65,912.391z"/>
<path style="fill:#FFFFFF;" d="M1888.379,402.156c0,3.491-2.83,6.32-6.32,6.32c-3.491,0-6.32-2.83-6.32-6.32
	c0-3.491,2.829-6.321,6.32-6.321C1885.549,395.835,1888.379,398.665,1888.379,402.156z"/>
<path style="fill:#FFFFFF;" d="M1933.866,712.423c0,6.595-5.347,11.941-11.941,11.941s-11.94-5.347-11.94-11.941
	c0-6.595,5.346-11.94,11.94-11.94S1933.866,705.828,1933.866,712.423z"/>
<path style="fill:#FFFFFF;" d="M1338.214,214.396c0,5.456-4.422,9.88-9.879,9.88s-9.88-4.424-9.88-9.88
	c0-5.457,4.423-9.879,9.88-9.879S1338.214,208.94,1338.214,214.396z"/>
<path style="fill:#FFFFFF;" d="M1983.57,329.592c-0.586,2.438-3.035,3.939-5.474,3.354c-2.437-0.585-3.938-3.035-3.353-5.472
	c0.586-2.437,3.035-3.938,5.473-3.353C1982.654,324.705,1984.155,327.155,1983.57,329.592z"/>
<path style="fill:#FFFFFF;" d="M1838.389,512.285c-1.246,5.188-6.461,8.383-11.646,7.138c-5.188-1.246-8.383-6.46-7.138-11.647
	c1.245-5.188,6.459-8.383,11.646-7.138C1836.438,501.884,1839.634,507.098,1838.389,512.285z"/>
<path style="fill:#FFFFFF;" d="M1928.246,214.396c0,3.49-2.83,6.321-6.321,6.321s-6.32-2.831-6.32-6.321
	c0-3.491,2.829-6.32,6.32-6.32S1928.246,210.906,1928.246,214.396z"/>
<path style="fill:#FFFFFF;" d="M2007.235,96.01c-0.585,2.438-3.034,3.938-5.472,3.354c-2.438-0.585-3.939-3.035-3.354-5.472
	c0.585-2.438,3.035-3.939,5.473-3.354C2006.319,91.123,2007.82,93.573,2007.235,96.01z"/>
<path style="fill:#FFFFFF;" d="M1833.409,847.195c-0.585,2.438-3.034,3.938-5.472,3.354c-2.438-0.585-3.939-3.036-3.354-5.473
	c0.586-2.436,3.035-3.938,5.473-3.354C1832.492,842.309,1833.994,844.759,1833.409,847.195z"/>
<path style="fill:#FFFFFF;" d="M1766.057,97.205c-1.246,5.188-6.461,8.383-11.647,7.138c-5.188-1.245-8.384-6.46-7.138-11.647
	c1.245-5.188,6.459-8.383,11.646-7.138C1764.104,86.804,1767.301,92.018,1766.057,97.205z"/>
<path style="fill:#FFFFFF;" d="M2214.584,736.306c0,6.595-5.346,11.94-11.941,11.94c-6.594,0-11.941-5.346-11.941-11.94
	c0-6.595,5.348-11.941,11.941-11.941C2209.238,724.364,2214.584,729.711,2214.584,736.306z"/>
<path style="fill:#FFFFFF;" d="M1658.857,286.743c0,6.595-5.346,11.941-11.941,11.941c-6.595,0-11.94-5.346-11.94-11.941
	c0-6.595,5.346-11.941,11.94-11.941C1653.512,274.802,1658.857,280.148,1658.857,286.743z"/>
<path style="fill:#FFFFFF;" d="M2168.617,106.892c0,6.595-5.346,11.941-11.941,11.941c-6.594,0-11.94-5.346-11.94-11.941
	c0-6.595,5.347-11.941,11.94-11.941C2163.271,94.951,2168.617,100.297,2168.617,106.892z"/>
<path style="fill:#FFFFFF;" d="M2133.648,396.894c-0.584,2.438-3.034,3.939-5.472,3.354c-2.437-0.585-3.938-3.035-3.353-5.472
	c0.584-2.438,3.034-3.938,5.473-3.354C2132.732,392.007,2134.234,394.457,2133.648,396.894z"/>
<path style="fill:#FFFFFF;" d="M2435.879,847.195c-0.585,2.438-3.034,3.938-5.473,3.354c-2.438-0.585-3.938-3.036-3.352-5.473
	c0.584-2.436,3.034-3.938,5.472-3.354C2434.963,842.309,2436.465,844.759,2435.879,847.195z"/>
<path style="fill:#FFFFFF;" d="M1308.82,650.633c-0.587,2.438-3.035,3.938-5.474,3.354c-2.438-0.585-3.938-3.035-3.353-5.473
	c0.585-2.438,3.034-3.938,5.473-3.353C1307.903,645.745,1309.405,648.195,1308.82,650.633z"/>
<path style="fill:#FFFFFF;" d="M2659.917,804.714c-0.585,2.438-3.036,3.938-5.472,3.353c-2.438-0.585-3.939-3.036-3.355-5.473
	c0.586-2.437,3.035-3.938,5.473-3.354C2659,799.826,2660.502,802.276,2659.917,804.714z"/>
<circle style="fill:#FFFFFF;" cx="1595.129" cy="687.464" r="11.941"/>
<path style="fill:#FFFFFF;" d="M1611.482,464.634c-0.585,2.438-3.034,3.939-5.473,3.354c-2.437-0.585-3.938-3.035-3.353-5.472
	c0.585-2.438,3.034-3.939,5.473-3.354C1610.566,459.746,1612.068,462.196,1611.482,464.634z"/>
<polygon style="fill:#FAFAFA;" points="2827.734,0.001 2827.734,1809.627 0,1809.627 0,0.001 1178.669,0.001 1178.669,1340.759 
	1471.726,1340.759 1471.726,0.001 1482.682,0.001 1482.682,1340.759 1775.737,1340.759 1775.737,0.001 1786.73,0.001 
	1786.73,1340.759 2079.787,1340.759 2079.787,0.001 2090.781,0.001 2090.781,1340.759 2383.801,1340.759 2383.801,0.001 
	2394.83,0.001 2394.83,1340.759 2687.85,1340.759 2687.85,0.001 2698.842,0.001 2698.842,1340.759 2778.376,1340.759 
	2778.376,0.001 "/>
<g>
	<rect x="1552.512" y="0.017" style="fill:#EBF3F7;" width="4.509" height="525.053"/>
	<path style="fill:#EBF3F7;" d="M1389.945,573.208c0,0,80.551-67.01,164.82-67.01s164.821,67.01,164.821,67.01H1389.945z"/>
</g>
<g>
	<rect x="1005.975" y="0.017" style="fill:#EBF3F7;" width="4.51" height="525.053"/>
	<path style="fill:#EBF3F7;" d="M843.408,573.208c0,0,80.553-67.01,164.821-67.01c84.271,0,164.821,67.01,164.821,67.01H843.408z"/>
</g>
<rect x="0.029" y="1610.701" style="fill:#EEF6FA;" width="2827.733" height="209.313"/>
<g>
	
		<linearGradient id="SVGID_00000039826780418508431190000007612713946478129794_" gradientUnits="userSpaceOnUse" x1="2936.0503" y1="-371.3521" x2="3261.3301" y2="-371.3521" gradientTransform="matrix(0.9184 0.3957 -0.3957 0.9184 -2037.0992 -177.3933)">
		<stop  offset="0" style="stop-color:#FF9F55"/>
		<stop  offset="1" style="stop-color:#FFD255"/>
	</linearGradient>
	<path style="fill:url(#SVGID_00000039826780418508431190000007612713946478129794_);" d="M1094.311,729.138
		c2.026-13.044,2.151-26.133,0.533-38.91l22.971-14.955l-11.005-27.67l-11.004-27.669l-26.968,4.905
		c-7.6-10.398-16.68-19.826-27.109-27.915l5.662-26.797l-27.346-11.783l-27.347-11.783l-15.588,22.519
		c-13.043-2.025-26.132-2.149-38.909-0.532l-14.956-22.97l-27.669,11.004l-27.669,11.005l4.906,26.967
		c-10.399,7.601-19.827,16.68-27.916,27.11L818.102,616l-11.784,27.347l-11.784,27.347l22.519,15.587
		c-2.024,13.044-2.149,26.131-0.531,38.909l-22.971,14.956l11.003,27.669l11.006,27.669l26.967-4.905
		c7.601,10.398,16.68,19.825,27.109,27.915l-5.661,26.796l27.346,11.784l27.347,11.784l15.587-22.52
		c13.044,2.025,26.132,2.149,38.909,0.532l14.955,22.971l27.67-11.005l27.67-11.004l-4.906-26.968
		c10.397-7.6,19.825-16.68,27.915-27.11l26.796,5.663l11.783-27.347l11.784-27.346L1094.311,729.138z M914.392,803.531
		c-52.922-22.804-77.337-84.192-54.532-137.113c22.804-52.922,84.191-77.336,137.113-54.532
		c52.922,22.805,77.336,84.192,54.533,137.113C1028.7,801.921,967.313,826.336,914.392,803.531z"/>
</g>
<g style="opacity:0.44;">
	<rect x="1639.744" y="870.505" style="fill:#B8D6FF;" width="82.857" height="6.185"/>
	<rect x="1639.744" y="879.396" style="fill:#B8D6FF;" width="82.857" height="16.752"/>
	<polygon style="fill:#B8D6FF;" points="1653.532,740.612 1653.532,796.639 1516.174,796.639 1516.174,806.485 1653.532,806.485 
		1653.532,815.195 1516.174,815.195 1516.174,856.587 1653.532,856.587 1656.624,856.587 1659.718,856.587 1659.718,740.612 	"/>
</g>
<g>
	
		<linearGradient id="SVGID_00000018941885136099569280000002464791147322901422_" gradientUnits="userSpaceOnUse" x1="3138.1301" y1="-631.3101" x2="3287.2532" y2="-631.3101" gradientTransform="matrix(0.9184 0.3957 -0.3957 0.9184 -2037.0992 -177.3933)">
		<stop  offset="0" style="stop-color:#FF9F55"/>
		<stop  offset="1" style="stop-color:#FFD255"/>
	</linearGradient>
	<path style="fill:url(#SVGID_00000018941885136099569280000002464791147322901422_);" d="M1226.801,523.898
		c0.928-5.979,0.985-11.981,0.244-17.837l10.53-6.857l-5.046-12.684l-5.044-12.685l-12.363,2.249
		c-3.484-4.768-7.646-9.089-12.429-12.798l2.597-12.284l-12.537-5.402l-12.537-5.402l-7.146,10.323
		c-5.979-0.928-11.98-0.985-17.838-0.244l-6.856-10.529l-12.685,5.045l-12.686,5.044l2.25,12.363
		c-4.769,3.484-9.089,7.646-12.798,12.429l-12.285-2.597l-5.401,12.537l-5.403,12.537l10.324,7.146
		c-0.929,5.979-0.985,11.981-0.243,17.838l-10.531,6.856l5.045,12.685l5.045,12.686l12.364-2.25
		c3.483,4.767,7.646,9.09,12.427,12.798l-2.596,12.285l12.536,5.401l12.538,5.402l7.146-10.323
		c5.979,0.929,11.979,0.985,17.837,0.244l6.855,10.53l12.685-5.045l12.686-5.045l-2.249-12.363
		c4.768-3.484,9.09-7.647,12.797-12.428l12.285,2.596l5.402-12.536l5.402-12.538L1226.801,523.898z M1144.316,558.004
		c-24.261-10.455-35.454-38.598-25-62.859c10.455-24.262,38.599-35.454,62.859-25c24.263,10.454,35.454,38.598,25,62.859
		C1196.722,557.265,1168.579,568.458,1144.316,558.004z"/>
</g>
<g>
	<g>
		<g>
			
				<linearGradient id="SVGID_00000134247144725812361090000008890912901510669705_" gradientUnits="userSpaceOnUse" x1="1325.5278" y1="766.8392" x2="1347.0642" y2="833.1996">
				<stop  offset="0" style="stop-color:#FF9F55"/>
				<stop  offset="1" style="stop-color:#FFD255"/>
			</linearGradient>
			<path style="fill:url(#SVGID_00000134247144725812361090000008890912901510669705_);" d="M1323.261,840.925l-48.579-42.351
				c-3.985-3.473-4.398-9.518-0.927-13.5c3.474-3.983,9.518-4.397,13.503-0.927l34.353,29.949l48.987-54.641
				c3.527-3.935,9.578-4.265,13.513-0.736c3.935,3.527,4.264,9.577,0.737,13.512L1323.261,840.925z"/>
		</g>
	</g>
</g>
<g>
	<g>
		
			<linearGradient id="SVGID_00000178185130412388008800000004352328123665320087_" gradientUnits="userSpaceOnUse" x1="1489.9102" y1="532.756" x2="1530.5153" y2="657.8729">
			<stop  offset="0" style="stop-color:#FF9F55"/>
			<stop  offset="1" style="stop-color:#FFD255"/>
		</linearGradient>
		<path style="fill:url(#SVGID_00000178185130412388008800000004352328123665320087_);" d="M1510.213,664.014
			c-4.793,0-8.68-3.887-8.68-8.68v-120.04c0-4.794,3.887-8.679,8.68-8.679c4.794,0,8.679,3.885,8.679,8.679v120.04
			C1518.892,660.127,1515.007,664.014,1510.213,664.014z"/>
	</g>
	<g>
		
			<linearGradient id="SVGID_00000009580761975197323970000014734825015444485764_" gradientUnits="userSpaceOnUse" x1="1501.8134" y1="569.4337" x2="1518.6116" y2="621.1942">
			<stop  offset="0" style="stop-color:#FF9F55"/>
			<stop  offset="1" style="stop-color:#FFD255"/>
		</linearGradient>
		<path style="fill:url(#SVGID_00000009580761975197323970000014734825015444485764_);" d="M1570.232,603.993h-120.04
			c-4.794,0-8.679-3.886-8.679-8.68c0-4.793,3.885-8.679,8.679-8.679h120.04c4.793,0,8.679,3.886,8.679,8.679
			C1578.911,600.107,1575.025,603.993,1570.232,603.993z"/>
	</g>
</g>
<g>
	
		<linearGradient id="SVGID_00000084495207632236378860000015097685826613256853_" gradientUnits="userSpaceOnUse" x1="486.8349" y1="1706.1736" x2="486.8349" y2="1549.9667">
		<stop  offset="0" style="stop-color:#FF9F55"/>
		<stop  offset="1" style="stop-color:#FFD255"/>
	</linearGradient>
	<path style="fill:url(#SVGID_00000084495207632236378860000015097685826613256853_);" d="M782.38,1719.093H231.488
		c-22.201,0-40.198-17.997-40.198-40.198v-65.252c0-22.2,17.998-40.197,40.198-40.197H782.38V1719.093z"/>
	<path style="fill:#FF9F55;" d="M876.991,1588.44v115.668h9.662v14.992H487.348c-22.2,0-40.197-17.997-40.197-40.198v-65.256
		c0-22.201,17.997-40.197,40.197-40.197h399.306v14.991H876.991z"/>
	<path style="fill:#EFF7FE;" d="M876.982,1704.102h-360.16c-22.199,0-40.197-17.997-40.197-40.198v-35.271
		c0-22.2,17.998-40.198,40.197-40.198h360.16V1704.102z"/>
	
		<linearGradient id="SVGID_00000173842933114791748650000009017363651748306095_" gradientUnits="userSpaceOnUse" x1="481.3225" y1="1353.9658" x2="481.3225" y2="1570.2051">
		<stop  offset="0" style="stop-color:#40D5E6"/>
		<stop  offset="1" style="stop-color:#5577FF"/>
	</linearGradient>
	<path style="fill:url(#SVGID_00000173842933114791748650000009017363651748306095_);" d="M808.116,1573.439h-603.08
		c-27.894,0-50.507-22.613-50.507-50.507v-68.369c0-27.894,22.613-50.507,50.507-50.507h603.08V1573.439z"/>
	<path style="fill:#5284FC;" d="M915.093,1421.496v134.517h8.321v17.437H595.41c-27.895,0-50.507-22.613-50.507-50.508v-68.372
		c0-27.895,22.612-50.507,50.507-50.507h328.004v17.434H915.093z"/>
	<path style="fill:#EFF7FE;" d="M915.086,1556.006H620.795c-27.894,0-50.507-22.613-50.507-50.507v-33.501
		c0-27.895,22.612-50.507,50.507-50.507h294.291V1556.006z"/>
	
		<linearGradient id="SVGID_00000176003791230168896170000010010723610961073818_" gradientUnits="userSpaceOnUse" x1="630.1392" y1="1364.3414" x2="630.1392" y2="1202.6755">
		<stop  offset="0" style="stop-color:#FF9F55"/>
		<stop  offset="1" style="stop-color:#FFD255"/>
	</linearGradient>
	<path style="fill:url(#SVGID_00000176003791230168896170000010010723610961073818_);" d="M373.625,1404.024h458.368
		c30.188,0,54.66-24.473,54.66-54.66v-98.343c0-30.188-24.473-54.66-54.66-54.66H373.625V1404.024z"/>
	<path style="fill:#FF9F55;" d="M291.509,1217.742v164.917h-8.386v21.377h326.8c30.188,0,54.66-24.472,54.66-54.66v-98.349
		c0-30.188-24.473-54.66-54.66-54.66h-326.8v21.375H291.509z"/>
	<path style="fill:#EFF7FE;" d="M291.517,1382.65h288.991c30.007,0,54.333-24.324,54.333-54.331v-56.253
		c0-30.006-24.326-54.332-54.333-54.332H291.517V1382.65z"/>
	
		<linearGradient id="SVGID_00000020364198625400672010000004430097622998445500_" gradientUnits="userSpaceOnUse" x1="445.1166" y1="929.6802" x2="445.1166" y2="1111.2997">
		<stop  offset="0" style="stop-color:#40D5E6"/>
		<stop  offset="1" style="stop-color:#5577FF"/>
	</linearGradient>
	<path style="fill:url(#SVGID_00000020364198625400672010000004430097622998445500_);" d="M716.865,1196.312H230.831
		c-31.736,0-57.463-25.728-57.463-57.463v-92.737c0-31.736,25.728-57.463,57.463-57.463h486.034V1196.312z"/>
	<path style="fill:#5284FC;" d="M803.857,1010.029v164.917h8.885v21.377H466.09c-31.735,0-57.462-25.727-57.462-57.463v-92.743
		c0-31.736,25.727-57.463,57.462-57.463h346.652v21.375H803.857z"/>
	<path style="fill:#EFF7FE;" d="M803.851,1174.938H496.015c-31.604,0-57.225-25.62-57.225-57.223v-50.469
		c0-31.604,25.621-57.225,57.225-57.225h307.836V1174.938z"/>
	
		<linearGradient id="SVGID_00000008829432557655632660000000597998487205721993_" gradientUnits="userSpaceOnUse" x1="582.2001" y1="840.1265" x2="582.2001" y2="985.3943">
		<stop  offset="0" style="stop-color:#40D5E6"/>
		<stop  offset="1" style="stop-color:#5577FF"/>
	</linearGradient>
	<path style="fill:url(#SVGID_00000008829432557655632660000000597998487205721993_);" d="M853.948,988.59H346.12
		c-19.699,0-35.668-15.969-35.668-35.667v-85.817c0-19.699,15.969-35.668,35.668-35.668h507.829V988.59z"/>
	<path style="fill:#5284FC;" d="M940.942,847.618v124.804h8.884v16.177H581.379c-19.699,0-35.667-15.969-35.667-35.667v-85.822
		c0-19.699,15.968-35.667,35.667-35.667h368.447v16.176H940.942z"/>
	<path style="fill:#EFF7FE;" d="M940.934,972.415H608.479c-19.698,0-35.667-15.969-35.667-35.668V883.28
		c0-19.699,15.969-35.668,35.667-35.668h332.454V972.415z"/>
</g>
<g>
	
		<linearGradient id="SVGID_00000010298938738589449910000013096920689249187002_" gradientUnits="userSpaceOnUse" x1="1651.1733" y1="1747.2887" x2="1651.1733" y2="1697.7745">
		<stop  offset="0" style="stop-color:#FF9F55"/>
		<stop  offset="1" style="stop-color:#FFD255"/>
	</linearGradient>
	<path style="fill:url(#SVGID_00000010298938738589449910000013096920689249187002_);" d="M1744.853,1751.384h-174.617
		c-7.036,0-12.741-5.705-12.741-12.742v-20.683c0-7.037,5.705-12.742,12.741-12.742h174.617V1751.384z"/>
	<path style="fill:#FF9F55;" d="M1774.842,1709.971v36.663h3.063v4.753h-126.568c-7.037,0-12.742-5.705-12.742-12.742v-20.684
		c0-7.037,5.705-12.742,12.742-12.742h126.568v4.752H1774.842z"/>
	<path style="fill:#EFF7FE;" d="M1774.838,1746.632h-114.159c-7.038,0-12.741-5.704-12.741-12.741v-11.18
		c0-7.038,5.703-12.742,12.741-12.742h114.159V1746.632z"/>
	
		<linearGradient id="SVGID_00000148646818965786197940000009104355199664713365_" gradientUnits="userSpaceOnUse" x1="1649.4263" y1="1635.6494" x2="1649.4263" y2="1704.1896">
		<stop  offset="0" style="stop-color:#40D5E6"/>
		<stop  offset="1" style="stop-color:#5577FF"/>
	</linearGradient>
	<path style="fill:url(#SVGID_00000148646818965786197940000009104355199664713365_);" d="M1753.011,1705.215h-191.16
		c-8.842,0-16.009-7.167-16.009-16.008v-21.672c0-8.842,7.167-16.009,16.009-16.009h191.16V1705.215z"/>
	<path style="fill:#5284FC;" d="M1786.919,1657.054v42.638h2.638v5.527h-103.968c-8.843,0-16.011-7.168-16.011-16.01v-21.672
		c0-8.842,7.168-16.009,16.011-16.009h103.968v5.525H1786.919z"/>
	<path style="fill:#EFF7FE;" d="M1786.916,1699.689h-93.281c-8.842,0-16.01-7.168-16.01-16.01v-10.618
		c0-8.843,7.168-16.01,16.01-16.01h93.281V1699.689z"/>
	
		<linearGradient id="SVGID_00000069384719693628468270000017568985141492533383_" gradientUnits="userSpaceOnUse" x1="1696.5967" y1="1638.9381" x2="1696.5967" y2="1587.6938">
		<stop  offset="0" style="stop-color:#FF9F55"/>
		<stop  offset="1" style="stop-color:#FFD255"/>
	</linearGradient>
	<path style="fill:url(#SVGID_00000069384719693628468270000017568985141492533383_);" d="M1615.289,1651.517h145.289
		c9.569,0,17.326-7.758,17.326-17.326v-31.173c0-9.568-7.757-17.325-17.326-17.325h-145.289V1651.517z"/>
	<path style="fill:#FF9F55;" d="M1589.26,1592.47v52.274h-2.658v6.775h103.587c9.569,0,17.325-7.757,17.325-17.326v-31.174
		c0-9.568-7.756-17.325-17.325-17.325h-103.587v6.775H1589.26z"/>
	<path style="fill:#EFF7FE;" d="M1589.263,1644.741h91.602c9.512,0,17.223-7.711,17.223-17.223v-17.83
		c0-9.511-7.711-17.221-17.223-17.221h-91.602V1644.741z"/>
	
		<linearGradient id="SVGID_00000036945626060006067200000008999652926974476956_" gradientUnits="userSpaceOnUse" x1="1637.9497" y1="1501.1622" x2="1637.9497" y2="1558.7305">
		<stop  offset="0" style="stop-color:#40D5E6"/>
		<stop  offset="1" style="stop-color:#5577FF"/>
	</linearGradient>
	<path style="fill:url(#SVGID_00000036945626060006067200000008999652926974476956_);" d="M1724.086,1585.677h-154.059
		c-10.06,0-18.214-8.154-18.214-18.215v-29.395c0-10.06,8.154-18.214,18.214-18.214h154.059V1585.677z"/>
	<path style="fill:#5284FC;" d="M1751.66,1526.631v52.274h2.816v6.774h-109.879c-10.06,0-18.214-8.154-18.214-18.214v-29.396
		c0-10.06,8.154-18.214,18.214-18.214h109.879v6.775H1751.66z"/>
	<path style="fill:#EFF7FE;" d="M1751.658,1578.901h-97.575c-10.019,0-18.139-8.121-18.139-18.138v-15.997
		c0-10.019,8.12-18.139,18.139-18.139h97.575V1578.901z"/>
	
		<linearGradient id="SVGID_00000060709154633722139710000002809392556549774774_" gradientUnits="userSpaceOnUse" x1="1681.4014" y1="1472.7766" x2="1681.4014" y2="1518.8221">
		<stop  offset="0" style="stop-color:#40D5E6"/>
		<stop  offset="1" style="stop-color:#5577FF"/>
	</linearGradient>
	<path style="fill:url(#SVGID_00000060709154633722139710000002809392556549774774_);" d="M1767.539,1519.835H1606.57
		c-6.244,0-11.307-5.062-11.307-11.306v-27.202c0-6.244,5.063-11.305,11.307-11.305h160.969V1519.835z"/>
	<path style="fill:#5284FC;" d="M1795.112,1475.15v39.56h2.816v5.128h-116.788c-6.244,0-11.306-5.063-11.306-11.306v-27.203
		c0-6.244,5.062-11.306,11.306-11.306h116.788v5.127H1795.112z"/>
	<path style="fill:#EFF7FE;" d="M1795.109,1514.707h-105.378c-6.243,0-11.306-5.061-11.306-11.305v-16.947
		c0-6.244,5.063-11.307,11.306-11.307h105.378V1514.707z"/>
</g>
<g>
	<g>
		<g>
			<polygon style="fill:#5C5049;" points="1397.771,1723.044 1355.66,1442.968 1363.771,1441.717 1405.881,1721.795 			"/>
		</g>
		<g>
			<polygon style="fill:#5C5049;" points="1346.347,1723.044 1304.234,1442.968 1312.345,1441.717 1354.456,1721.795 			"/>
		</g>
		<g>
			<polygon style="fill:#5C5049;" points="1093.051,1723.044 1084.94,1721.795 1127.052,1441.717 1135.162,1442.968 			"/>
		</g>
		<path style="fill:#C9C5B4;" d="M1368.838,1445.819l32.989-347.071c0,0-57.698-7.548-92.564-5.688l-52.397,352.76H1368.838z"/>
		<rect x="1256.865" y="1428.183" style="fill:#C9C5B4;" width="111.973" height="17.637"/>
		<path style="fill:#C9C5B4;" d="M1183.611,1431.682l-17.5-330.745c0,0,146.022-15.861,235.716-2.188L1183.611,1431.682z"/>
		<path style="fill:#292C47;" d="M1300.22,993.837c0,0,22.548-66.124-20.48-86.623c-43.028-20.499-79.563,9.134-86.462,25.168
			c-6.901,16.033-5.074,45.191,0.811,65.523c5.886,20.33,5.029,51.283-7.757,61.634c-12.788,10.352-28.643,27.543-27.856,62.537
			c0.487,21.712,85.431-55.534,85.431-55.534L1300.22,993.837z"/>
		<path style="fill:#D4C3BD;" d="M1242.806,1705.375c0,0-1.34,46.729,5.333,49.54c6.674,2.812,31.929-13.438,43.068-29.508
			c11.139-16.07-13.958-53.47-18.076-74.104c-1.724-8.639-21.349-24.181-30.918-19.727c-9.57,4.454-16.556,15.863-16.556,15.863
			S1250.006,1664.123,1242.806,1705.375z"/>
		<g>
			<path style="fill:#DE9673;" d="M1225.657,1647.439c0,0,8.287,15.944,12.548,28.32c4.26,12.374,5.057,46.636,7.742,49.016
				c2.685,2.379,23.846-8.3,26.67-21.11c2.825-12.812-5.756-38.422-13.926-51.887c-8.17-13.463-16.479-20.202-16.479-20.202
				S1227.784,1634.379,1225.657,1647.439z"/>
		</g>
		<path style="fill:#DE9673;" d="M1191.269,1284.33c0,0,11.121,18.777,0,32.45c-11.12,13.673-85.889,51.226-85.341,72.92
			c0.547,21.693,14.243,55.647,19.166,64.261c4.922,8.613,23.08,44.357,32.514,65.275c9.434,20.919,63.984,120.997,74.648,143.556
			c10.664,22.558,4.102-90.235,4.102-90.235l-54.552-159.961l127.457-124.168C1309.263,1288.428,1293.837,1254.092,1191.269,1284.33
			z"/>
		<path style="fill:#D44040;" d="M1239.761,1072.497c0,0-35.366,7.839-49.404,16.042c-14.036,8.203-45.21,45.94-45.21,62.164
			c0,16.226,136.328,31.385,136.328,31.385l25.84,94.336c0,0,68.906-16.816,77.108-30.761
			c8.204-13.945-27.133-113.204-32.054-134.121c-4.922-20.919-30.699-35.022-59.41-39.045S1239.761,1072.497,1239.761,1072.497z"/>
		<path style="fill:#EEA886;" d="M1323.346,1287.43c0,0-2.461,16.134,4.102,22.97c6.563,6.836,36.791,46.698,20.782,85.864
			c-14.697,35.958-43.206,35.274-43.206,35.274h-44.115c0,0,12.808,64.73,8.672,107.387
			c-4.138,42.656-23.594,140.063-24.005,144.984c-0.41,4.922-18.651,20.309-23.983,12.516c0,0-0.494-58.652-3.365-80.802
			c-2.871-22.147-15.093-110.742-18.784-123.867c-3.691-13.124-25.429-52.909-25.429-57.012c0-4.101-21.231-68.313,25.116-84.72
			C1245.478,1333.619,1261.857,1287.771,1323.346,1287.43z"/>
		<path style="fill:#E6D3CC;" d="M1199.627,1741.662c0,0-30.426,35.49-27.006,41.873c3.419,6.381,33.275,9.63,52.042,4.14
			c18.767-5.489,22.773-50.351,32.547-68.984c4.093-7.802-1.394-32.226-11.635-34.781c-10.242-2.555-22.848,1.923-22.848,1.923
			S1231.167,1714.117,1199.627,1741.662z"/>
		<g>
			<path style="fill:#EEA886;" d="M1222.728,1685.832c0,0-3.583,17.609-8.053,29.91c-4.471,12.302-25.396,39.44-24.805,42.979
				c0.592,3.537,23.76,8.544,34.013,0.358c10.253-8.185,19.686-33.493,21.8-49.1s-0.107-26.071-0.107-26.071
				S1232.595,1677.016,1222.728,1685.832z"/>
		</g>
		<path style="fill:#292C47;" d="M1348.229,1396.264c-13.878,36.437-43.206,35.274-43.206,35.274h-44.115
			c0,0-18.402-29.163-63.465-34.173c-9.989-1.111-21.287-1.036-33.984,0.81c-0.153,0.021-0.307,0.043-0.459,0.064
			c-59.873,8.871-48.313,30.848-48.131,31.422c-4.974-12.149-10.201-31.472-8.941-41.875c5.742-47.397,74.22-57.334,85.341-71.008
			c11.122-13.672,0-32.447,0-32.447c102.568-30.237,117.994,4.097,117.994,4.097c4.496-0.623,16.02-7.26,20.92-7.287
			c0,0,5.135,11.211,8.749,21.328C1342.122,1311.394,1363.289,1356.723,1348.229,1396.264z"/>
		<polygon style="fill:#DED1C5;" points="1305.674,1135.33 1320.85,1276.424 1121.103,1276.424 1105.928,1135.33 		"/>
		<rect x="1303.384" y="1263.73" style="fill:#DED1C5;" width="33.36" height="12.693"/>
		<rect x="913.852" y="1276.424" style="fill:#BC8551;" width="623.253" height="19.21"/>
		<path style="fill:#EEA886;" d="M1261.861,918.49c0,0,44.752,13.243,38.358,75.347c-6.394,62.104-35.619,58.907-38.358,59.364
			c-2.741,0.457-37.445,2.74-48.404-72.607C1202.497,905.248,1261.861,918.49,1261.861,918.49z"/>
		<path style="fill:#EEA886;" d="M1283.189,1041.779c0,0-2.369,20.562,1.589,33.348c3.957,12.787-52.126,13.143-52.094,2.627
			c0.036-11.943,5.737-21.922,0.366-42.395C1227.68,1014.886,1283.189,1041.779,1283.189,1041.779z"/>
		<path style="fill:#292C47;" d="M1250.31,946.183c0,0,24.316,38.683,49.91,47.654c0,0,13.975-64.905-43.744-78.504
			c-57.719-13.599-48.678,65.557-44.369,86.665C1212.106,1001.998,1224.126,970.945,1250.31,946.183z"/>
		<path style="fill:#A77860;" d="M1239.688,1044.401c0,0,17.707,18.449,40.349,1.926c0,0-1.87,11.79-18.155,13.313
			C1245.597,1061.162,1239.688,1044.401,1239.688,1044.401z"/>
		<path style="opacity:0.72;fill:#FFFFFF;" d="M1217.694,940.356c0,0,12.8-24.789,34.415-25.896
			c21.613-1.107,34.468,17.643,34.468,17.643s-8.439-21.112-34.441-21.112C1226.131,910.991,1217.694,940.356,1217.694,940.356z"/>
		<path style="fill:#EEA886;" d="M1290.505,1072.172c0,0-0.794,42.983-34.884,44.26c-34.09,1.275-26.994-41.228-26.994-41.228
			S1253.563,1065.102,1290.505,1072.172z"/>
		<rect x="1522.976" y="1295.634" style="fill:#807066;" width="14.129" height="441.161"/>
		<rect x="934.971" y="1295.634" style="fill:#807066;" width="14.128" height="441.161"/>
	</g>
	<g>
		<path style="fill:#CFC147;" d="M1041.595,1226.565l0.002,0.002c0,0,11.938,5.709,8.823,3.114
			c-3.113-2.595,7.786-17.127,22.837-36.33c15.05-19.203,5.189-27.507-4.152-49.824c-3.714-8.871-10.216-12.165-16.432-12.001
			c-9.418,0.246-18.175,8.436-15.564,17.192c4.334,14.531,10.198,28.544-0.701,43.076
			C1025.604,1206.197,1041.314,1226.21,1041.595,1226.565z"/>
		<path style="fill:#CFC147;" d="M1074.014,1148.458c7.287-3.633,16.109-16.607,8.844-19.722c-7.266-3.113-1.6-12.456-8.844-12.456
			s-10.877,11.275-6.726,17.574C1067.288,1133.854,1066.726,1152.092,1074.014,1148.458z"/>
		<path style="fill:#CFC147;" d="M1075.851,1116.569c0,0,11.418-9.86,0-11.937c-11.418-2.076-8.304,10.38-7.266,11.937
			C1069.624,1118.127,1075.851,1116.569,1075.851,1116.569z"/>
		<path style="fill:#A09832;" d="M1030.698,1151.054c8.822-1.557,8.822-10.381,8.822-10.381s-7.006-12.975-12.975-7.006
			C1020.578,1139.635,1021.875,1152.61,1030.698,1151.054z"/>
		<path style="fill:#A09832;" d="M1041.595,1226.565l0.002,0.002c0,0,17.388-31.658,8.305-53.976
			c-6.363-15.637-1.007-32.419,2.771-41.065c-9.418,0.246-18.175,8.436-15.564,17.192c4.334,14.531,10.198,28.544-0.701,43.076
			C1025.604,1206.197,1041.314,1226.21,1041.595,1226.565z"/>
		<polygon style="fill:#727643;" points="1071.945,1226.181 1020.444,1226.181 1022.643,1233.717 1070.061,1233.717 		"/>
		<polygon style="fill:#4B4C37;" points="1060.954,1276.424 1065.229,1242.238 1066.292,1233.717 1026.726,1233.717 
			1031.75,1276.424 		"/>
		<polygon style="fill:#727643;" points="1074.166,1169.997 1085.572,1162.212 1074.166,1168.439 		"/>
		<polygon style="fill:#727643;" points="1061.19,1118.875 1067.405,1124.454 1067.937,1123.156 		"/>
		<polygon style="fill:#727643;" points="1076.5,1123.417 1084.025,1122.378 1077.148,1122.378 		"/>
		<polygon style="fill:#727643;" points="1068.975,1098.375 1071.181,1105.9 1072.089,1105.9 		"/>
		<polygon style="fill:#727643;" points="1077.798,1105.9 1078.446,1106.938 1083.377,1102.786 		"/>
		<polygon style="fill:#727643;" points="1074.166,1104.862 1075.556,1105.381 1074.166,1100.451 		"/>
		<polygon style="fill:#727643;" points="1070.791,1186.216 1075.556,1198.152 1073.257,1186.216 		"/>
		<polygon style="fill:#727643;" points="1027.584,1140.587 1017.724,1133.84 1026.72,1141.639 		"/>
		<polygon style="fill:#727643;" points="1035.196,1198.152 1021.01,1200.444 1035.196,1200.444 		"/>
		<path style="fill:#444532;" d="M1065.229,1242.238l1.063-8.521h-39.566l5.024,42.707h9.635
			C1040.591,1252.952,1057.512,1244.752,1065.229,1242.238z"/>
	</g>
	<g>
		<polygon style="fill:#7D776B;" points="1048.664,1210.186 1048.339,1213.631 1047.279,1224.883 1047.009,1227.72 
			1046.564,1232.416 1046.295,1235.259 1044.003,1259.456 1042.518,1275.123 1042.398,1276.424 968.386,1276.424 968.144,1272.704 
			965.31,1227.945 964.396,1213.631 964.277,1211.713 964.234,1211.041 963.816,1204.541 1003.106,1207.158 1005.257,1207.3 
			1011.687,1207.725 1032.912,1209.139 1033.57,1209.181 1048.035,1210.144 		"/>
		<path style="fill:#736D38;" d="M1039.104,1190.531l12.544-58.216c0,0-22.7,44.207-22.7,62.726
			C1028.947,1213.562,1039.104,1190.531,1039.104,1190.531z"/>
		<path style="fill:#477830;" d="M1033.129,1187.276c0,0,12.545-81.844,3.584-106.336c0,0-17.921,81.569-16.13,109.591
			C1022.377,1218.552,1033.129,1187.276,1033.129,1187.276z"/>
		<path style="fill:#92B856;" d="M984.74,1195.041c-2.39-14.337-20.92-53.475-20.92-53.475c-1.207,20.005,8.972,53.475,8.972,53.475
			S987.13,1209.379,984.74,1195.041z"/>
		<path style="fill:#367031;" d="M991.313,1193.847c-1.794-16.727-20.909-79.452-20.909-79.452
			c-2.391,16.129,8.961,79.452,8.961,79.452S993.104,1210.573,991.313,1193.847z"/>
		<path style="fill:#5B802A;" d="M997.286,1194.444c-1.194-7.168-16.514-118.881-16.514-118.881
			c-6.357,16.727,4.237,114.968,4.237,114.968C985.637,1196.618,998.481,1201.613,997.286,1194.444z"/>
		<path style="fill:#4B5E26;" d="M1003.26,1190.531c0-9.289-11.787-141.851-11.787-141.851c-1.631,8.364-6.463,88.09-6.463,88.09
			l6.303,57.076C991.313,1193.847,1003.26,1199.82,1003.26,1190.531z"/>
		<path style="fill:#3A472D;" d="M1024.829,1073.174c0,0-19.788,105.936-18.587,122.564c1.199,16.628,20.442,23.261,18.587-51.742
			C1024.829,1143.996,1026.088,1086.914,1024.829,1073.174z"/>
		<path style="fill:#6A8F39;" d="M1020.458,1132.315c0,0-1.698-33.453-4.669-44.804c0,0-14.321,102.048-12.529,110.464
			C1005.051,1206.393,1017.867,1181.777,1020.458,1132.315z"/>
		<path style="fill:#46402B;" d="M1011.781,1157.838c3.145-36.464-11.509-92.43-11.509-92.43
			c-4.181,8.363-6.138,56.801-6.138,56.801s5.54,79.404,8.97,84.946C1006.533,1212.699,1008.636,1194.301,1011.781,1157.838z"/>
		<path style="fill:#706C3A;" d="M1048.664,1210.186l-0.325,3.445l-1.06,11.252l-0.271,2.837l-0.444,4.696l-0.27,2.843
			c-4.265,0.892-10.736,3.205-18.156,9.14c-7.61,6.082-16.219,15.97-24.452,32.025h-35.301l-0.241-3.72l-2.835-44.759l-0.913-14.314
			l-0.119-1.918l-0.043-0.672l47.452-1.315l21.226-0.587l0.658,0.042l14.465,0.963L1048.664,1210.186z"/>
		<polygon style="fill:#858045;" points="962.934,1190.531 957.448,1213.631 1055.033,1213.631 1048.871,1190.531 		"/>
	</g>
	<g>
		
			<linearGradient id="SVGID_00000177483208260014596430000010278235386940897444_" gradientUnits="userSpaceOnUse" x1="1415.5264" y1="1243.2852" x2="1491.0566" y2="1243.2852">
			<stop  offset="0" style="stop-color:#FF9F55"/>
			<stop  offset="1" style="stop-color:#FFD255"/>
		</linearGradient>
		<path style="fill:url(#SVGID_00000177483208260014596430000010278235386940897444_);" d="M1486.137,1222.147
			c-4.322-2.872-10.291-2.187-14.427-1.155l1.511-10.846h-57.694l9.236,66.277h39.229l0.866-6.192l0.828-5.948
			c5.936-0.125,11.27-2.213,15.555-6.138c6.238-5.711,9.816-14.915,9.816-25.253
			C1491.057,1226.714,1488.381,1223.639,1486.137,1222.147z M1476.991,1253.504c-2.928,2.679-6.425,4.164-10.425,4.444l4.191-30.113
			c3.079-1.048,8.924-2.421,11.896-0.446c0.521,0.348,2.108,1.402,2.108,5.504
			C1484.762,1241.469,1481.93,1248.981,1476.991,1253.504z"/>
		<defs>
			<filter id="Adobe_OpacityMaskFilter" filterUnits="userSpaceOnUse" x="1415.526" y="1210.146" width="48.465" height="66.277">
				<feFlood  style="flood-color:white;flood-opacity:1" result="back"/>
				<feBlend  in="SourceGraphic" in2="back" mode="normal"/>
			</filter>
		</defs>
		
			<mask maskUnits="userSpaceOnUse" x="1415.526" y="1210.146" width="48.465" height="66.277" id="SVGID_00000113349723814677326900000001234834239550550677_">
			<g style="filter:url(#Adobe_OpacityMaskFilter);">
				<defs>
					
						<filter id="Adobe_OpacityMaskFilter_00000095305427044703196070000008511016086900931205_" filterUnits="userSpaceOnUse" x="1415.526" y="1210.146" width="48.465" height="66.277">
						<feFlood  style="flood-color:white;flood-opacity:1" result="back"/>
						<feBlend  in="SourceGraphic" in2="back" mode="normal"/>
					</filter>
				</defs>
				
					<mask maskUnits="userSpaceOnUse" x="1415.526" y="1210.146" width="48.465" height="66.277" id="SVGID_00000113349723814677326900000001234834239550550677_">
					<g style="filter:url(#Adobe_OpacityMaskFilter_00000095305427044703196070000008511016086900931205_);">
					</g>
				</mask>
				
					<linearGradient id="SVGID_00000104664322140817903350000001127885047823051147_" gradientUnits="userSpaceOnUse" x1="1417.8323" y1="1283.4497" x2="1445.8938" y2="1232.0472">
					<stop  offset="0" style="stop-color:#FFFFFF"/>
					<stop  offset="1" style="stop-color:#000000"/>
				</linearGradient>
				
					<path style="mask:url(#SVGID_00000113349723814677326900000001234834239550550677_);fill:url(#SVGID_00000104664322140817903350000001127885047823051147_);" d="
					M1463.991,1276.424L1463.991,1276.424h-39.229l-9.236-66.277h21.243C1436.77,1210.146,1429.138,1269.965,1463.991,1276.424
					C1463.991,1276.424,1463.983,1276.417,1463.991,1276.424z"/>
			</g>
		</mask>
		
			<linearGradient id="SVGID_00000178909939199164959830000009141463269966335367_" gradientUnits="userSpaceOnUse" x1="1417.8323" y1="1283.4497" x2="1445.8938" y2="1232.0472">
			<stop  offset="0" style="stop-color:#FFA155"/>
			<stop  offset="1" style="stop-color:#FFA155"/>
		</linearGradient>
		<path style="fill:url(#SVGID_00000178909939199164959830000009141463269966335367_);" d="M1463.991,1276.424L1463.991,1276.424
			h-39.229l-9.236-66.277h21.243C1436.77,1210.146,1429.138,1269.965,1463.991,1276.424
			C1463.991,1276.424,1463.983,1276.417,1463.991,1276.424z"/>
		
			<linearGradient id="SVGID_00000082346021406336301580000006381372042354587577_" gradientUnits="userSpaceOnUse" x1="1427.3633" y1="1210.5793" x2="1445.5131" y2="1177.333">
			<stop  offset="0.0052" style="stop-color:#E6E6E6"/>
			<stop  offset="1" style="stop-color:#FFDCC2"/>
		</linearGradient>
		<path style="fill:url(#SVGID_00000082346021406336301580000006381372042354587577_);" d="M1442.073,1164.512
			c0,0-12.134,4.045-7.64,14.828c4.494,10.785,12.227,17.576,4.943,30.807c0,0,13.479-8.113,7.189-21.595
			C1440.274,1175.072,1436.455,1171.252,1442.073,1164.512z"/>
		
			<linearGradient id="SVGID_00000154410969008037694890000015418945482714083737_" gradientUnits="userSpaceOnUse" x1="1448.6781" y1="1210.4642" x2="1461.9916" y2="1186.077">
			<stop  offset="0.0052" style="stop-color:#E6E6E6"/>
			<stop  offset="1" style="stop-color:#FFDCC2"/>
		</linearGradient>
		<path style="fill:url(#SVGID_00000154410969008037694890000015418945482714083737_);" d="M1459.468,1176.672
			c0,0-8.899,2.967-5.604,10.878c3.297,7.911,8.968,12.892,3.626,22.597c0,0,9.889-5.952,5.274-15.84
			C1458.149,1184.418,1455.348,1181.616,1459.468,1176.672z"/>
		
			<linearGradient id="SVGID_00000088823930761655613730000007684740260906234027_" gradientUnits="userSpaceOnUse" x1="1416.3248" y1="1210.4644" x2="1429.6384" y2="1186.0768">
			<stop  offset="0.0052" style="stop-color:#E6E6E6"/>
			<stop  offset="1" style="stop-color:#FFDCC2"/>
		</linearGradient>
		<path style="fill:url(#SVGID_00000088823930761655613730000007684740260906234027_);" d="M1427.115,1176.672
			c0,0-8.9,2.967-5.604,10.878s8.969,12.892,3.626,22.597c0,0,9.89-5.952,5.273-15.84
			C1425.796,1184.418,1422.994,1181.616,1427.115,1176.672z"/>
	</g>
</g>
<g>
	<polygon style="fill:#B8D6FF;" points="314.982,757.533 309.495,757.533 326.238,723.692 331.725,723.692 	"/>
	<rect x="138.476" y="754.433" style="fill:#B8D6FF;" width="265.613" height="4.209"/>
	<rect x="138.476" y="768.081" style="fill:#B8D6FF;" width="141.887" height="24.362"/>
	<rect x="309.495" y="710.299" style="fill:#B8D6FF;" width="73.93" height="13.394"/>
	<rect x="309.495" y="704.049" style="fill:#B8D6FF;" width="73.93" height="2.52"/>
</g>
<g>
	<g>
		<path style="fill:#D0E5F5;" d="M803.29,464.21H677.033c-5.336,0-9.661-4.326-9.661-9.663V435.05c0-5.336,4.325-9.661,9.661-9.661
			H803.29c5.336,0,9.662,4.325,9.662,9.661v19.497C812.952,459.884,808.626,464.21,803.29,464.21z"/>
	</g>
</g>
<g>
	<g>
		<path style="fill:#D0E5F5;" d="M803.29,536.894H677.033c-5.336,0-9.661-4.326-9.661-9.662v-19.497
			c0-5.337,4.325-9.662,9.661-9.662H803.29c5.336,0,9.662,4.325,9.662,9.662v19.497C812.952,532.568,808.626,536.894,803.29,536.894
			z"/>
	</g>
</g>
<g>
	<g>
		<path style="fill:#D0E5F5;" d="M803.29,609.58H677.033c-5.336,0-9.661-4.326-9.661-9.663V580.42c0-5.336,4.325-9.662,9.661-9.662
			H803.29c5.336,0,9.662,4.326,9.662,9.662v19.497C812.952,605.254,808.626,609.58,803.29,609.58z"/>
	</g>
</g>
<g>
	<g>
		<g>
			<path style="fill:#D0E5F5;" d="M596.985,338.798c-32.384-90.548-118.921-146.163-210.127-143.42
				c-22.08,0.664-44.433,4.747-66.369,12.591c-66.433,23.762-114.073,76.679-133.644,139.195
				c-13.563,43.327-13.65,91.263,2.82,137.308c1.635,4.578,3.416,9.085,5.324,13.484c8.663,19.943,20.029,37.983,33.53,53.842
				c56.599,66.542,150.52,94.663,237.647,63.508C578.644,575.073,637.212,451.28,596.985,338.798z M447.934,564.328
				c-65.323,23.365-135.734,2.278-178.172-47.604c-10.115-11.89-18.645-25.417-25.131-40.375c-1.433-3.301-2.769-6.675-3.999-10.111
				c-12.346-34.52-12.276-70.46-2.109-102.936c14.672-46.878,50.384-86.554,100.194-104.363c16.441-5.881,33.203-8.941,49.757-9.445
				c68.373-2.064,133.265,39.637,157.546,107.526C576.18,441.355,532.265,534.164,447.934,564.328z"/>
		</g>
	</g>
	<g>
		<g>
			<path style="fill:#78B0DE;" d="M238.522,363.302l-51.677-16.138c19.571-62.516,67.211-115.433,133.644-139.195
				c21.936-7.844,44.289-11.928,66.369-12.591l1.615,54.116c-16.555,0.504-33.316,3.564-49.757,9.445
				C288.906,276.748,253.194,316.424,238.522,363.302z"/>
		</g>
	</g>
	<g>
		<g>
			<path style="fill:#98C3E6;" d="M244.63,476.35l-49.642,21.606c-1.908-4.399-3.689-8.906-5.324-13.484
				c-16.47-46.045-16.383-93.98-2.82-137.308l51.677,16.138c-10.167,32.477-10.237,68.417,2.109,102.936
				C241.861,469.675,243.198,473.049,244.63,476.35z"/>
		</g>
	</g>
	<g>
		<g>
			<path style="fill:#B5D2EB;" d="M228.518,551.798c-13.5-15.858-24.867-33.898-33.53-53.842l49.642-21.606
				c6.486,14.958,15.017,28.485,25.131,40.375L228.518,551.798z"/>
		</g>
	</g>
</g>
</svg>
