<?xml version="1.0" encoding="utf-8"?>
<!-- Generator: Adobe Illustrator 25.2.0, SVG Export Plug-In . SVG Version: 6.00 Build 0)  -->
<svg version="1.1" id="_x2018_лой_x5F_1" xmlns="http://www.w3.org/2000/svg" xmlns:xlink="http://www.w3.org/1999/xlink"
	 x="0px" y="0px" viewBox="0 0 3200 2000" style="enable-background:new 0 0 3200 2000;" xml:space="preserve">
<style type="text/css">
	.st0{fill:#FFFFFF;}
	.st1{fill:#EBF3FA;}
	.st2{fill:#DFEBFD;}
	.st3{fill:#AEC3FF;}
	.st4{fill:#759BE0;}
	.st5{opacity:0.7;fill:#759BE0;}
	.st6{fill:#94B0ED;}
	.st7{fill:#D2E0FF;}
	.st8{opacity:0.5;fill:#AEC3FF;}
	.st9{fill:#ED7D2B;}
	.st10{fill:#F99746;}
	.st11{fill:#E06D20;}
	.st12{fill:#2C3A64;}
	.st13{fill:#FFB27D;}
	.st14{fill:#2F539B;}
	.st15{fill:#233862;}
	.st16{fill:#ED985F;}
	.st17{fill:none;}
	.st18{fill:#163560;}
	.st19{fill:#143D7A;}
	.st20{fill:#ED975D;}
	.st21{fill:#2B478B;}
</style>
<rect class="st0" width="3200" height="2000"/>
<g>
	<path class="st1" d="M292.31,1805.93c0,0-199.02-155.42-60.24-526.94c81.81-219.03,357.79-185.4,343.83-578.79
		c-13.96-393.39,240.42-564.87,696.43-386.32c329.09,128.85,822.55-454.16,1230.49,278.75
		c157.34,282.67,432.68,246.05,505.98,762.99c20.04,141.3-10.02,289.23-158.48,450.32H292.31z"/>
	<path class="st2" d="M1494.18,868.4l23.81-17.65c2-1.45,4.63-1.66,6.83-0.54c2.8,1.43,5.68,2.76,8.64,3.98
		c5.5,2.27,11.04,4.09,16.62,5.41c2.61,0.62,4.58,2.72,4.96,5.36l4.7,30.61c0.47,3.27,3.41,5.64,6.76,5.41l28.25-1.86
		c3.2-0.22,5.7-2.79,5.85-5.98l1.21-28.49c0.06-2.77,1.99-5.16,4.74-5.91c11.63-3.18,22.73-8.23,32.86-14.93
		c2.45-1.61,5.76-1.33,7.92,0.64l12.8,11.71c2.45,2.2,6.2,2.27,8.71,0.09l21.04-18.65c0.44-0.38,0.81-0.78,1.11-1.26
		c1.49-2.18,1.46-5.17-0.19-7.35l-13.16-17.8l-3.22-4.33c2.67-4.53,5.07-9.35,7.13-14.34c2.77-6.73,4.86-13.59,6.28-20.42
		c0.55-2.61,2.6-4.63,5.25-5.01l24.66-3.76c3.37-0.54,5.79-3.53,5.54-6.91l-1.42-21.6l-0.42-6.19c-0.22-3.38-2.95-6.08-6.33-6.21
		l-23.81-1.03c-2.76-0.09-5.16-1.91-5.9-4.53c-2.35-7.79-5.51-15.31-9.45-22.39c-0.29-0.65-0.62-1.2-0.97-1.8
		c-0.13-0.19-0.22-0.4-0.31-0.62c-1.09-2.37-0.61-5.15,1.17-7.07l18.96-20.83c0.23-0.22,0.41-0.49,0.58-0.74
		c1.62-2.41,1.44-5.7-0.51-7.94l-18.56-21c-2.24-2.53-6.03-2.94-8.78-0.92l-24.82,18.42c-2.09,1.59-4.92,1.68-7.15,0.31
		c-4.93-2.97-10.17-5.62-15.7-7.9c-2.93-1.21-5.88-2.28-8.85-3.22c-2.41-0.78-4.18-2.84-4.55-5.34l-4.53-29.42
		c-0.48-3.24-3.4-5.59-6.7-5.38l-27.95,1.88c-3.38,0.22-6.06,2.92-6.22,6.36l-0.96,22.54c-0.13,3.03-2.28,5.53-5.22,6.14
		c-11.59,2.25-22.75,6.33-33.09,12c-2.42,1.38-5.49,1.02-7.58-0.88l-18.76-17.1c-2.52-2.3-6.36-2.3-8.92-0.07l-20.93,18.48
		c-2.52,2.21-2.9,6.01-0.9,8.65l0.76,1.05l15.3,20.67c1.64,2.21,1.72,5.15,0.24,7.48l-0.01,0.03c-3.55,5.57-6.67,11.52-9.28,17.86
		c-1.39,3.38-2.58,6.77-3.65,10.21c-0.71,2.4-2.73,4.16-5.19,4.54l-25.04,3.82c-3.43,0.51-5.89,3.59-5.65,7.01l1.86,27.83
		c0.06,0.79,0.27,1.55,0.55,2.22c0.99,2.19,3.17,3.76,5.68,3.88l19.02,0.77c2.33,0.12,4.43,1.47,5.49,3.48
		c0.27,0.53,0.49,1.11,0.62,1.72c2.97,14.86,8.89,28.94,17.39,41.5c1.47,2.11,1.45,4.9,0.11,7.04c-0.2,0.3-0.42,0.6-0.68,0.88
		l-15.37,16.85c-2.23,2.44-2.26,6.17-0.08,8.68l0.43,0.49l18.07,20.49C1487.59,870.06,1491.42,870.44,1494.18,868.4z
		 M1615.19,701.53c3.57,2.8,7.02,6.04,10.28,9.76c6.2,7.1,11.91,20.67,12.54,30.1c0.07,1.01,0.12,2.01,0.16,3
		c1.92,60.73-68.75,89.42-109.8,43.46c-5.35-6.02-10.25-16.46-12.23-25.49c-0.43-2.1-0.75-4.12-0.84-5.94
		c-0.52-8.57,0.37-16.53,2.45-23.78C1529.63,691.3,1579.36,673.73,1615.19,701.53z"/>
	<path class="st2" d="M1684.01,575.16l20.44-11.08c1.71-0.91,3.78-0.78,5.37,0.33c2.02,1.42,4.11,2.77,6.28,4.04
		c4.02,2.37,8.13,4.4,12.31,6.04c1.96,0.77,3.26,2.62,3.26,4.71l0.27,24.3c0,2.59,2.03,4.76,4.66,4.95l22.15,1.67
		c2.51,0.18,4.73-1.54,5.21-4l4.08-22c0.35-2.15,2.11-3.79,4.34-4.07c9.38-1.19,18.56-3.88,27.18-7.97c2.08-0.98,4.62-0.4,6.08,1.37
		l8.65,10.51c1.66,1.98,4.56,2.45,6.75,1.03l18.4-12.16c0.38-0.25,0.72-0.52,1-0.85c1.4-1.53,1.71-3.85,0.66-5.73l-8.26-15.28
		l-2.02-3.72c2.57-3.22,4.97-6.7,7.12-10.35c2.89-4.92,5.28-10.02,7.13-15.17c0.71-1.96,2.53-3.31,4.63-3.31l19.58-0.2
		c2.67-0.04,4.89-2.1,5.07-4.76l1.28-16.94l0.35-4.85c0.2-2.65-1.62-5.05-4.23-5.52l-18.38-3.43c-2.14-0.37-3.79-2.06-4.08-4.17
		c-0.97-6.31-2.59-12.5-4.87-18.44c-0.16-0.53-0.35-1-0.56-1.5c-0.08-0.16-0.12-0.34-0.17-0.51c-0.58-1.96,0.1-4.06,1.69-5.37
		l17.03-14.09c0.2-0.15,0.38-0.34,0.54-0.51c1.53-1.69,1.75-4.27,0.48-6.22l-12.1-18.36c-1.46-2.22-4.36-2.95-6.72-1.69
		l-21.32,11.57c-1.8,1-4.01,0.76-5.59-0.55c-3.5-2.85-7.28-5.49-11.32-7.87c-2.14-1.26-4.32-2.42-6.52-3.48
		c-1.78-0.87-2.93-2.67-2.95-4.65l-0.27-23.36c-0.02-2.57-2.02-4.72-4.61-4.92l-21.92-1.62c-2.65-0.2-5.03,1.6-5.53,4.25
		l-3.24,17.41c-0.43,2.34-2.38,4.05-4.73,4.19c-9.26,0.47-18.37,2.41-27.03,5.67c-2.03,0.81-4.38,0.19-5.79-1.52l-12.69-15.36
		c-1.7-2.06-4.69-2.49-6.92-1.04l-18.3,12.05c-2.2,1.44-2.91,4.35-1.66,6.62l0.47,0.9l9.6,17.75c1.03,1.9,0.77,4.19-0.64,5.84
		l-0.01,0.02c-3.37,3.93-6.45,8.21-9.18,12.85c-1.45,2.47-2.75,4.98-3.96,7.53c-0.82,1.79-2.58,2.93-4.54,2.96l-19.87,0.2
		c-2.72,0.02-4.97,2.14-5.16,4.82l-1.63,21.83c-0.04,0.62,0.04,1.23,0.18,1.79c0.53,1.81,2.05,3.27,3.98,3.64l14.69,2.7
		c1.8,0.35,3.28,1.63,3.88,3.31c0.15,0.44,0.26,0.92,0.29,1.41c0.67,11.87,3.71,23.46,8.93,34.16c0.91,1.8,0.58,3.96-0.69,5.48
		c-0.19,0.21-0.39,0.42-0.62,0.61l-13.8,11.4c-2,1.65-2.44,4.54-1.02,6.73l0.28,0.43l11.78,17.91
		C1678.71,575.72,1681.64,576.44,1684.01,575.16z M1796.43,458.88c2.46,2.57,4.79,5.47,6.91,8.72c4.04,6.2,6.97,17.38,6.42,24.76
		c-0.05,0.79-0.13,1.57-0.21,2.35c-5.21,47.39-63.28,61.88-90.09,21.65c-3.5-5.27-6.15-13.92-6.69-21.16c-0.1-1.68-0.13-3.28,0-4.71
		c0.54-6.72,2.11-12.8,4.53-18.21C1731.1,441.49,1771.67,433.33,1796.43,458.88z"/>
	<path class="st2" d="M2600.25,1484l25.24-13.68c2.11-1.12,4.67-0.96,6.63,0.41c2.49,1.76,5.07,3.42,7.75,4.99
		c4.97,2.92,10.04,5.43,15.2,7.46c2.42,0.95,4.02,3.24,4.03,5.82l0.34,30c0.01,3.2,2.51,5.87,5.75,6.11l27.35,2.06
		c3.1,0.23,5.84-1.9,6.43-4.94l5.04-27.17c0.43-2.65,2.61-4.68,5.36-5.03c11.59-1.47,22.92-4.8,33.56-9.84
		c2.57-1.21,5.71-0.5,7.51,1.69l10.68,12.97c2.05,2.44,5.64,3.02,8.34,1.27l22.72-15.02c0.47-0.3,0.89-0.64,1.24-1.05
		c1.73-1.89,2.11-4.76,0.82-7.08l-10.2-18.87l-2.5-4.59c3.18-3.98,6.14-8.27,8.79-12.78c3.57-6.08,6.52-12.38,8.81-18.74
		c0.88-2.43,3.13-4.08,5.71-4.09l24.17-0.25c3.3-0.05,6.03-2.59,6.26-5.88l1.58-20.91l0.44-5.99c0.25-3.27-2-6.23-5.22-6.82
		l-22.7-4.23c-2.64-0.46-4.69-2.54-5.04-5.15c-1.2-7.79-3.2-15.44-6.01-22.77c-0.19-0.66-0.44-1.24-0.69-1.86
		c-0.1-0.2-0.15-0.42-0.21-0.63c-0.72-2.42,0.12-5.02,2.08-6.63l21.03-17.39c0.25-0.18,0.46-0.42,0.66-0.63
		c1.88-2.09,2.16-5.27,0.59-7.68l-14.94-22.67c-1.81-2.74-5.38-3.64-8.3-2.08l-26.32,14.28c-2.22,1.24-4.95,0.94-6.9-0.68
		c-4.32-3.52-8.99-6.78-13.98-9.72c-2.65-1.56-5.33-2.99-8.05-4.3c-2.2-1.08-3.62-3.29-3.64-5.74l-0.33-28.84
		c-0.02-3.17-2.5-5.83-5.69-6.08l-27.06-2c-3.27-0.25-6.21,1.98-6.83,5.25l-3.99,21.49c-0.53,2.88-2.94,5-5.84,5.18
		c-11.43,0.58-22.69,2.97-33.38,7c-2.51,0.99-5.41,0.23-7.15-1.88l-15.67-18.96c-2.1-2.54-5.79-3.08-8.55-1.29l-22.6,14.87
		c-2.72,1.78-3.6,5.37-2.05,8.17l0.58,1.11l11.86,21.92c1.27,2.35,0.95,5.18-0.79,7.21l-0.02,0.03
		c-4.16,4.86-7.97,10.14-11.33,15.87c-1.79,3.05-3.4,6.14-4.89,9.3c-1.01,2.21-3.18,3.62-5.6,3.65l-24.54,0.25
		c-3.36,0.02-6.13,2.64-6.38,5.95l-2.01,26.95c-0.05,0.77,0.05,1.52,0.23,2.21c0.65,2.23,2.53,4.03,4.92,4.49l18.14,3.33
		c2.22,0.43,4.05,2.02,4.79,4.09c0.19,0.55,0.32,1.13,0.36,1.74c0.82,14.66,4.58,28.97,11.02,42.18c1.13,2.22,0.72,4.89-0.86,6.77
		c-0.23,0.27-0.48,0.51-0.77,0.75l-17.04,14.07c-2.47,2.04-3.01,5.61-1.25,8.31l0.34,0.53l14.54,22.11
		C2593.7,1484.7,2597.32,1485.59,2600.25,1484z M2739.06,1340.43c3.04,3.17,5.91,6.75,8.53,10.76c4.98,7.66,8.6,21.45,7.92,30.58
		c-0.07,0.98-0.16,1.94-0.25,2.9c-6.44,58.51-78.14,76.41-111.24,26.73c-4.32-6.5-7.59-17.19-8.26-26.12
		c-0.13-2.07-0.16-4.05,0-5.81c0.67-8.3,2.61-15.8,5.59-22.48C2658.39,1318.96,2708.48,1308.88,2739.06,1340.43z"/>
	<path class="st3" d="M2749.57,1222.38l13.5-7.32c1.13-0.6,2.5-0.51,3.55,0.22c1.33,0.94,2.71,1.83,4.15,2.67
		c2.66,1.56,5.37,2.91,8.13,3.99c1.29,0.51,2.15,1.73,2.15,3.11l0.18,16.05c0,1.71,1.34,3.14,3.08,3.27l14.63,1.1
		c1.66,0.12,3.13-1.02,3.44-2.64l2.7-14.53c0.23-1.42,1.4-2.5,2.87-2.69c6.2-0.79,12.26-2.57,17.95-5.26
		c1.37-0.65,3.05-0.26,4.02,0.91l5.72,6.94c1.1,1.31,3.02,1.62,4.46,0.68l12.16-8.04c0.25-0.16,0.47-0.34,0.66-0.56
		c0.92-1.01,1.13-2.54,0.44-3.79l-5.46-10.09l-1.33-2.46c1.7-2.13,3.28-4.43,4.7-6.84c1.91-3.25,3.49-6.62,4.71-10.02
		c0.47-1.3,1.67-2.18,3.06-2.19l12.93-0.13c1.77-0.03,3.23-1.39,3.35-3.14l0.85-11.19l0.23-3.21c0.13-1.75-1.07-3.33-2.79-3.65
		l-12.14-2.26c-1.41-0.25-2.51-1.36-2.7-2.75c-0.64-4.17-1.71-8.26-3.22-12.18c-0.1-0.35-0.23-0.66-0.37-0.99
		c-0.05-0.11-0.08-0.22-0.11-0.34c-0.39-1.3,0.06-2.68,1.11-3.54l11.25-9.31c0.13-0.1,0.25-0.22,0.35-0.34
		c1.01-1.12,1.15-2.82,0.32-4.11l-7.99-12.13c-0.97-1.46-2.88-1.95-4.44-1.11l-14.08,7.64c-1.19,0.66-2.65,0.5-3.69-0.37
		c-2.31-1.88-4.81-3.63-7.48-5.2c-1.42-0.83-2.85-1.6-4.31-2.3c-1.18-0.58-1.94-1.76-1.95-3.07l-0.18-15.43
		c-0.01-1.7-1.33-3.12-3.05-3.25l-14.48-1.07c-1.75-0.13-3.33,1.06-3.66,2.81l-2.14,11.5c-0.29,1.54-1.57,2.67-3.13,2.77
		c-6.11,0.31-12.14,1.59-17.86,3.75c-1.34,0.53-2.89,0.13-3.82-1l-8.38-10.14c-1.12-1.36-3.1-1.65-4.57-0.69l-12.09,7.96
		c-1.45,0.95-1.92,2.87-1.09,4.37l0.31,0.59l6.34,11.72c0.68,1.26,0.51,2.77-0.42,3.86l-0.01,0.01c-2.23,2.6-4.26,5.43-6.06,8.49
		c-0.96,1.63-1.82,3.29-2.62,4.97c-0.54,1.18-1.7,1.94-3,1.95l-13.13,0.13c-1.8,0.01-3.28,1.41-3.41,3.19l-1.07,14.42
		c-0.03,0.41,0.03,0.81,0.12,1.18c0.35,1.2,1.36,2.16,2.63,2.4l9.71,1.78c1.19,0.23,2.17,1.08,2.56,2.19
		c0.1,0.29,0.17,0.61,0.19,0.93c0.44,7.84,2.45,15.5,5.9,22.56c0.6,1.19,0.38,2.62-0.46,3.62c-0.12,0.14-0.26,0.28-0.41,0.4
		l-9.12,7.53c-1.32,1.09-1.61,3-0.67,4.45l0.18,0.28l7.78,11.83C2746.07,1222.75,2748.01,1223.22,2749.57,1222.38z M2823.83,1145.57
		c1.63,1.7,3.16,3.61,4.57,5.76c2.67,4.1,4.6,11.48,4.24,16.36c-0.04,0.52-0.09,1.04-0.14,1.55c-3.44,31.3-41.8,40.88-59.51,14.3
		c-2.31-3.48-4.06-9.2-4.42-13.97c-0.07-1.11-0.08-2.17,0-3.11c0.36-4.44,1.4-8.45,2.99-12.03
		C2780.68,1134.08,2807.48,1128.69,2823.83,1145.57z"/>
	<path class="st2" d="M501.75,1225.12l14.81-8.03c1.24-0.66,2.74-0.56,3.89,0.24c1.46,1.03,2.98,2.01,4.54,2.93
		c2.91,1.71,5.89,3.19,8.92,4.37c1.42,0.56,2.36,1.9,2.36,3.42l0.2,17.6c0,1.88,1.47,3.44,3.37,3.58l16.05,1.21
		c1.82,0.13,3.43-1.12,3.77-2.9l2.96-15.93c0.25-1.56,1.53-2.75,3.14-2.95c6.8-0.86,13.45-2.81,19.69-5.77
		c1.51-0.71,3.35-0.29,4.4,0.99l6.27,7.61c1.2,1.43,3.31,1.77,4.89,0.75l13.33-8.81c0.28-0.18,0.52-0.38,0.73-0.62
		c1.01-1.11,1.24-2.79,0.48-4.15l-5.98-11.07l-1.46-2.69c1.86-2.34,3.6-4.85,5.16-7.5c2.1-3.56,3.82-7.26,5.17-10.99
		c0.52-1.42,1.84-2.4,3.35-2.4l14.18-0.14c1.94-0.03,3.54-1.52,3.67-3.45l0.93-12.27l0.26-3.52c0.15-1.92-1.18-3.66-3.06-4
		l-13.31-2.48c-1.55-0.27-2.75-1.49-2.96-3.02c-0.7-4.57-1.88-9.06-3.53-13.35c-0.11-0.39-0.26-0.73-0.4-1.09
		c-0.06-0.12-0.09-0.25-0.12-0.37c-0.42-1.42,0.07-2.94,1.22-3.89l12.34-10.2c0.15-0.11,0.27-0.24,0.39-0.37
		c1.1-1.23,1.27-3.09,0.35-4.51l-8.76-13.3c-1.06-1.6-3.16-2.13-4.87-1.22l-15.44,8.38c-1.3,0.73-2.9,0.55-4.05-0.4
		c-2.54-2.07-5.27-3.98-8.2-5.7c-1.55-0.91-3.13-1.75-4.72-2.52c-1.29-0.63-2.12-1.93-2.13-3.37l-0.2-16.92
		c-0.01-1.86-1.46-3.42-3.34-3.56l-15.88-1.17c-1.92-0.15-3.65,1.16-4.01,3.08l-2.34,12.61c-0.31,1.69-1.72,2.93-3.43,3.04
		c-6.7,0.34-13.31,1.74-19.58,4.11c-1.47,0.58-3.17,0.14-4.19-1.1l-9.19-11.12c-1.23-1.49-3.39-1.8-5.01-0.75l-13.26,8.72
		c-1.59,1.04-2.11,3.15-1.2,4.79l0.34,0.65l6.96,12.85c0.75,1.38,0.56,3.04-0.46,4.23l-0.01,0.02c-2.44,2.85-4.67,5.95-6.65,9.31
		c-1.05,1.79-1.99,3.6-2.87,5.46c-0.59,1.29-1.87,2.12-3.28,2.14l-14.39,0.15c-1.97,0.01-3.6,1.55-3.74,3.49l-1.18,15.81
		c-0.03,0.45,0.03,0.89,0.13,1.29c0.38,1.31,1.49,2.37,2.88,2.64l10.64,1.95c1.3,0.25,2.37,1.18,2.81,2.4
		c0.11,0.32,0.19,0.66,0.21,1.02c0.48,8.6,2.69,17,6.47,24.74c0.66,1.31,0.42,2.87-0.5,3.97c-0.13,0.16-0.28,0.3-0.45,0.44
		l-9.99,8.25c-1.45,1.19-1.77,3.29-0.74,4.88l0.2,0.31l8.53,12.97C497.91,1225.52,500.03,1226.05,501.75,1225.12z M583.17,1140.9
		c1.78,1.86,3.47,3.96,5.01,6.31c2.92,4.49,5.05,12.58,4.65,17.94c-0.04,0.57-0.09,1.14-0.15,1.7
		c-3.78,34.32-45.83,44.82-65.25,15.68c-2.53-3.81-4.45-10.08-4.84-15.32c-0.07-1.22-0.09-2.38,0-3.41
		c0.39-4.87,1.53-9.27,3.28-13.19C535.85,1128.31,565.23,1122.4,583.17,1140.9z"/>
	<path class="st2" d="M1852.34,977.2l38.05-27.24c3.19-2.24,7.36-2.5,10.8-0.68c4.39,2.34,8.9,4.51,13.54,6.51
		c8.63,3.72,17.33,6.75,26.1,8.98c4.11,1.05,7.16,4.42,7.69,8.6l6.62,48.46c0.66,5.18,5.24,8.99,10.53,8.71l44.66-2.2
		c5.06-0.26,9.07-4.26,9.4-9.29l2.66-44.95c0.17-4.38,3.27-8.1,7.65-9.21c18.44-4.72,36.1-12.4,52.28-22.71
		c3.91-2.48,9.13-1.96,12.49,1.22l19.91,18.82c3.81,3.54,9.73,3.75,13.74,0.37l33.71-28.89c0.7-0.59,1.3-1.22,1.79-1.95
		c2.42-3.41,2.45-8.12-0.11-11.61l-20.31-28.45l-4.96-6.92c4.33-7.08,8.25-14.62,11.63-22.45c4.55-10.55,8.04-21.33,10.45-32.08
		c0.94-4.1,4.23-7.24,8.41-7.77l39.04-5.29c5.33-0.76,9.23-5.42,8.93-10.77l-1.67-34.14l-0.51-9.78c-0.25-5.34-4.5-9.67-9.82-9.97
		l-37.57-2.25c-4.36-0.21-8.09-3.16-9.19-7.3c-3.51-12.36-8.3-24.32-14.33-35.6c-0.45-1.03-0.96-1.91-1.49-2.87
		c-0.2-0.31-0.33-0.64-0.47-0.98c-1.65-3.77-0.83-8.14,2.03-11.14l30.49-32.39c0.37-0.34,0.67-0.77,0.94-1.15
		c2.62-3.76,2.42-8.96-0.59-12.55l-28.75-33.65c-3.48-4.06-9.44-4.8-13.84-1.69l-39.68,28.42c-3.34,2.45-7.82,2.52-11.3,0.29
		c-7.71-4.83-15.91-9.14-24.58-12.89c-4.59-1.98-9.22-3.76-13.89-5.32c-3.78-1.3-6.53-4.6-7.05-8.55l-6.38-46.57
		c-0.68-5.13-5.21-8.92-10.44-8.67l-44.18,2.24c-5.34,0.25-9.65,4.46-9.99,9.87l-2.11,35.57c-0.28,4.77-3.74,8.67-8.4,9.55
		c-18.37,3.25-36.09,9.4-52.57,18.08c-3.86,2.12-8.7,1.47-11.94-1.59l-29.18-27.49c-3.91-3.69-9.98-3.81-14.09-0.35l-33.54,28.63
		c-4.04,3.43-4.73,9.41-1.66,13.63l1.17,1.67l23.61,33.04c2.53,3.54,2.59,8.18,0.19,11.81l-0.02,0.05
		c-5.75,8.7-10.83,18.02-15.12,27.96c-2.29,5.3-4.25,10.62-6.03,16.03c-1.18,3.77-4.41,6.49-8.32,7.03l-39.63,5.37
		c-5.43,0.72-9.39,5.52-9.1,10.92l2.21,43.99c0.07,1.25,0.39,2.45,0.82,3.52c1.5,3.48,4.91,6.01,8.86,6.27l30.01,1.71
		c3.67,0.25,6.95,2.44,8.57,5.65c0.41,0.85,0.74,1.77,0.93,2.74c4.3,23.54,13.27,45.93,26.36,65.98c2.27,3.37,2.15,7.77-0.01,11.12
		c-0.32,0.47-0.68,0.93-1.09,1.36l-24.71,26.21c-3.58,3.79-3.73,9.68-0.35,13.7l0.66,0.79l27.99,32.82
		C1841.89,979.65,1847.92,980.36,1852.34,977.2z M2047.78,716.91c5.56,4.51,10.93,9.72,15.98,15.68c9.61,11.37,18.26,32.96,19,47.85
		c0.09,1.6,0.13,3.17,0.18,4.75c1.43,95.93-110.91,139.39-174.5,65.74c-8.3-9.64-15.75-26.26-18.64-40.57
		c-0.62-3.33-1.08-6.53-1.17-9.4c-0.6-13.55,1.02-26.08,4.5-37.49C1912.97,698.51,1991.94,672.08,2047.78,716.91z"/>
	<path class="st2" d="M671.31,896.45c11.91-60.42,113.26-48.89,113.26-48.89s75.2,99.01,95.14,100.09
		c19.94,1.09-47.76-97.2-47.76-97.2c38.03-6.39,138.9,33.73,138.9,33.73s2.29,121.49,21.89,117.63
		c19.59-3.85-7.52-107.47-7.52-107.47c37.83,8.52,75.45,49.34,75.45,49.34c48.16,67.38-40.85,125.75-40.85,125.75
		s1.7,42.08,31.01,88.44l0,0c0,0,6.48,8.49,13.49,23.19l-10.1,0.71c-1.01-2.65-2.11-5.21-3.29-7.65c0-0.02-0.01-0.03-0.02-0.04
		c-0.02-0.04-0.04-0.07-0.05-0.11c-0.8-1.51-1.95-3.66-3.38-6.28c0,0,0-0.01-0.01-0.01c0-0.01-0.01-0.01-0.01-0.01
		c-3.51-5.83-5.91-10.14-7.45-13.27c-0.01-0.01-0.01-0.02-0.01-0.03c-10.58-18.32-25.63-42.1-34.88-46.66c0,0,1.01-1.65,1.84-4.79
		c-0.59,1.53-1.2,3.12-1.84,4.79c-14.7,38.27-100.73,50.49-149.6,43.98s-28.82-21.57-4.42-45.44c24.4-23.87,79.15-21.86,94.61-31.63
		c15.45-9.77-8.62-16.77-40.56-12.06c-31.94,4.72-45.75,37.96-97.29,46.53c-51.53,8.57-97.89-86.25-97.89-86.25
		c36.6,8.61,99.45-15.65,101.06-28.17c1.61-12.53-93.42-4.63-108.5-7.3C687.42,984.69,659.4,956.86,671.31,896.45z"/>
	<path class="st4" d="M1487.63,1126.28l-53.61,637.39c0,0-5.62,38.64,23.12,38.71c47.25,0.11,235.2,0,235.2,0
		s-35.56-8.04-35.13-26.14c0.51-21.33,62.66-655.99,62.66-655.99L1487.63,1126.28z"/>
	<path class="st3" d="M1707.6,1790.81c-9.29,0.03-188.8,0.59-234.82,0c-20.06-0.25-23.57-17.83-23.74-29.21
		c-0.08-5.46,0.61-9.49,0.61-9.49l1.39-16.57l3.55-42.22l3.14-37.3l4.03-47.94l3.4-40.46l38.09-452.91l232.24-6.03
		c0,0-26.17,265.6-44.69,458.94c-2.07,21.54-4.03,42.2-5.85,61.48c-0.59,6.16-1.15,12.17-1.71,18.03
		c-1.72,18.29-3.29,35.09-4.65,49.92c-0.72,7.82-1.38,15.08-1.98,21.74c-2.36,26.07-3.75,42.72-3.77,45.89
		c-0.01,1.85,0.15,3.56,0.45,5.16C1677.1,1790.15,1704.11,1790.81,1707.6,1790.81z"/>
	<polygon class="st3" points="923.63,779.43 1054.21,1303.93 1072.08,1375.76 1132.9,1620.06 2262.76,1620.06 2038.6,779.43 	"/>
	<polygon class="st4" points="923.63,779.43 905.53,785.47 1108.84,1638.3 1132.9,1620.06 	"/>
	<polygon class="st4" points="1108.84,1638.3 2231.75,1638.3 2262.76,1620.06 1132.9,1620.06 	"/>
	
		<rect x="1503.17" y="1791.07" transform="matrix(-1 -1.224647e-16 1.224647e-16 -1 3249.4722 3593.6904)" class="st3" width="243.13" height="11.55"/>
	<polygon class="st5" points="1684.49,1638.3 1683.24,1647.13 1454.59,1693.32 1457.73,1656.02 1459.22,1638.3 	"/>
	<path class="st6" d="M1707.6,1790.81c-9.29,0.03-188.8,0.59-234.82,0c-20.06-0.25-23.57-17.83-23.74-29.21l227.57-42.82
		c-2.36,26.07-3.75,42.72-3.77,45.89c-0.01,1.85,0.15,3.56,0.45,5.16C1677.1,1790.15,1704.11,1790.81,1707.6,1790.81z"/>
	<polygon class="st6" points="1629.23,1449.88 1132.9,1620.06 1072.08,1375.76 	"/>
	<polygon class="st7" points="923.63,779.43 2038.6,779.43 2218.14,1455.03 1091.88,1455.03 	"/>
	<polygon class="st8" points="968.57,803.44 1128.73,1418.86 2164.14,1418.86 2002.21,810.52 	"/>
	<rect x="1343.37" y="1171.73" class="st9" width="391.64" height="247.11"/>
	<rect x="1539.19" y="1171.74" class="st10" width="391.63" height="247.1"/>
	<polygon class="st11" points="1539.19,1208.24 1456.64,1290.79 1343.6,1290.79 1343.6,1171.73 1539.19,1171.73 	"/>
	<polygon class="st10" points="1343.37,1171.73 1255.32,1256.7 1451.26,1256.7 1539.19,1171.73 	"/>
	<polygon class="st9" points="1930.83,1180.49 1539.19,1171.74 1539.19,1203.04 1539.19,1203.04 1539.19,1208.16 1612.01,1288 
		1930.83,1288 1930.83,1208.52 1928.81,1206.15 1930.83,1206.15 	"/>
	<polygon class="st10" points="1539.19,1171.73 1616.68,1256.7 2003.14,1256.7 1930.83,1171.73 	"/>
	<path class="st12" d="M856.75,1140.46c0,0,2.72-29.68-30.43-29.68c0,0,10.05,2.73,15.24,8.18c0,0-21.15-12.42-44.16,6.66
		c-23.01,19.08-8.71,66.92-15.71,76.01c-7,9.08-34.25,10.9-30.92,40.28c3.33,29.37,86.5,66.16,81.16,90.47
		c0,0,32.59-47.91,9.29-69.77c0,0,11.36,10.7,12.52,23.42c0,0,3.08-24.83-12.72-32.77c-13.98-7.03-25.44-32.73-24.23-37.33
		C817.98,1211.32,856.75,1140.46,856.75,1140.46z"/>
	<path class="st13" d="M824.1,1282.95c0,0,24.77,102.48,49.09,122.96c14.62,12.31,58.07,40.57,58.07,40.57l-18.08,6.56
		c0,0-60.28-20.36-73.77-36.22c-13.49-15.87-50.44-95.37-50.44-95.37L824.1,1282.95z"/>
	<g>
		<path class="st10" d="M966.68,1483.94l-5.82-14.42c-6.24-15.46-21.24-25.58-37.91-25.58H815.56v68.14v290.91h444.22v-290.91
			h-251.38C990.06,1512.08,973.55,1500.95,966.68,1483.94z"/>
		<g>
			<path class="st0" d="M882.57,1662.28v-25.88l90.78-39.76v26.45l-63.39,26.07l63.39,26.07v26.82L882.57,1662.28z"/>
			<path class="st0" d="M1067.68,1565.69h24.19l-83.09,173.68H984.6L1067.68,1565.69z"/>
			<path class="st0" d="M1192.78,1636.4v25.88l-90.78,39.76v-26.44l63.39-26.07l-63.39-26.07v-26.82L1192.78,1636.4z"/>
		</g>
	</g>
	<path class="st14" d="M591.29,1462.98c0.22,0.39,0.45,0.8,0.68,1.2c5.42,9.42,17.86,32.51,31.55,57.77
		c6.48,11.99,13.26,24.46,19.7,36.2c11.09,20.26,21.17,38.31,27.06,47.84c5.99,9.7,10.39,16.51,12.17,19.23
		c0.01,0.01,0.01,0.01,0.01,0.01c0.54,0.84,0.65,1.83,0.58,2.81c-0.62,8.55-0.45,17.04,0.39,25.41
		c8.26,82.19,63.68,126.24,63.68,126.24l16.48,2.43c0,0-23.32-86.39-30.19-135.24c-1.16-8.28-1.67-14.99-1.26-19.36
		c1.22-12.73-1.04-31.41-5.32-52.86c-7.61-38.12-21.57-84.9-33.7-122.35c-0.77-2.39-23.94-86.22-23.94-86.22
		c-19.45,17-90.39,24.02-90.39,24.02S566.77,1419.37,591.29,1462.98z"/>
	<path class="st15" d="M798.19,1802.99h-68.78c0,0-1.65-10.48,1.94-18.43c3.44-7.63,8.35-7.87,0.63-19.84
		c4.37,4.5,18.42,6.36,28.36,5.02c1.22,1.97,7.85,15.23,11.92,18.15C776.76,1791.12,796.81,1789.97,798.19,1802.99z"/>
	<path class="st15" d="M591.29,1462.98c0.22,0.39,0.45,0.8,0.68,1.2c5.42,9.42,34.74,63.57,48.43,88.83
		c-15.87-65.29-4.83-130.58-4.83-130.58L591.29,1462.98z"/>
	<path class="st12" d="M847.37,1136.29c0.45-1.81-39.28,17.96-41.3,20.19c-18.63,20.67-13.32,47.64-2.66,47.9
		c6.84,0.17,5.51,11.54,5.51,11.54l76.18-32.23C885.1,1183.69,875.93,1130.21,847.37,1136.29z"/>
	<path class="st10" d="M821.77,1267.56c0,0,11.59,23.16,10.15,41.95c0,0-13.98,22.07-50.23,27.65
		C781.68,1337.16,812.85,1267.54,821.77,1267.56z"/>
	<path class="st14" d="M644.91,1395.25l0.23-12.86c-25.63,3.23-88.37-30.63-88.37-30.63s-26.81,17.83-30.48,68.76
		c-1.79,24.86-13.12,129.98-14.38,161.37c-0.46,11.38-0.61,19.5-0.66,22.74c0.01,0.02,0,0.02,0,0.03c-0.02,0.99-0.48,1.86-1.09,2.65
		c-5.3,6.74-9.9,13.88-13.89,21.29c-39.11,72.76-18.66,171.63-18.66,171.63l9.08-2.31c0,0,33.07-102.49,54.68-146.83
		c3.67-7.52,7-13.37,9.79-16.75c8.13-9.87,16.69-26.63,25.14-46.8C592.28,1549.4,644.91,1395.25,644.91,1395.25z"/>
	<path class="st15" d="M532.32,1802.99h-68.78c0,0-1.65-10.48,1.94-18.43c3.44-7.63,8.83-11.1,7.54-20.33
		c4.37,4.5,11.49,9.54,21.44,8.2c1.22,1.97,7.86,12.54,11.93,15.47C510.89,1791.12,530.93,1789.97,532.32,1802.99z"/>
	<path class="st10" d="M777.04,1351.93c-9.24,1.58,1.51,8.92-11.2,10.3c-18.08,1.97-36.76,3.33-46.54,7.23
		c-3.57,1.42-5.95,3.18-6.7,5.43c-4.24,12.75-31.09,34.66-31.09,34.66c-119.76-5.45-127.47-58.83-127.47-58.83
		c77.73-75.49,143.85-116.63,198.5-121.73c13.3-1.24,31.23,0.42,39.64,4.17c19.11,8.51,29.59,34.4,29.59,34.4
		S812.14,1345.94,777.04,1351.93z"/>
	<path class="st9" d="M765.84,1362.23c-18.08,1.97-36.76,3.33-46.54,7.23c-4-59.73,24.19-104.65,24.19-104.65
		S761.88,1339.62,765.84,1362.23z"/>
	<path class="st13" d="M781.44,1254.69c0,0-45.48-2.48-53.56,26.07c-8.08,28.55,15.16,142.52,20.17,154.28
		c9.12,21.42,53.51,82.54,53.51,82.54l16.32-4.97c0,0-29.6-93.37-36.21-102.61C771.31,1395.49,795.05,1267.11,781.44,1254.69z"/>
	<path class="st13" d="M817.89,1512.61c0,0,0.84,7.24,3.9,10.98c3.06,3.74,11.96,12.78,12.12,18.08c0,0-0.45,2.35-2.36,1.92
		c-1.91-0.43-8.54-6.99-11.94-6.52c0,0,1.82,10.61,3.61,13.6c1.8,2.99,0.37,15.66-0.71,18.24c-1.08,2.58-14.35-13.84-19.8-21.18
		c-5.45-7.34-0.09-37.1-0.09-37.1L817.89,1512.61z"/>
	<path class="st10" d="M718.91,1318.94c0.12,0.67,43.04,7.9,69.88-5.73c0,0,22.43-70.25-9.62-66.89
		c-32.05,3.36-51.02,13.46-51.83,28.8C726.53,1290.46,718.91,1318.94,718.91,1318.94z"/>
	<path class="st13" d="M791.16,1238.08c3.42,10.71,14.81,41.22,30.61,29.48c-0.54-2.28,2.78-8.9,6.7-15.62
		c5-8.59,10.96-17.38,10.96-17.38L813.68,1212l-1.54-1.35c-6.73,11.75-13.35,17.41-19.15,21.74
		C791.23,1233.71,790.49,1235.98,791.16,1238.08z"/>
	<path class="st16" d="M839.42,1234.56c0,0-5.95,8.76-10.95,17.37c-16-9.86-16.02-29.67-14.78-39.93L839.42,1234.56z"/>
	<path class="st13" d="M840.13,1245.86c0,0-38.85-21.62-25.01-45.6c13.83-23.98,18.14-42.93,43.52-30.14s24.88,24.69,22.21,33.82
		C878.18,1213.07,850.59,1250.87,840.13,1245.86z"/>
	<path class="st12" d="M887.42,1189.96c-1.78-10.65-7.19-11.67-10.96-10.96c-14.35-23.72-37.78-14.46-37.78-14.46
		c-12.52,15.71-30.62,18.39-30.62,18.39s4.51,8.39,23.08,13.58c5.67,1.59,12.11,0.63,18.32-1.46c-12.89,7.18-26.36,9.94-26.36,9.94
		c24.48,2.24,47.76-20.14,50.18-22.53c1.13,3.47,3.11,10.73,1.92,16.04c-1.61,7.21-8.01,20.28-4.1,21.97
		C871.1,1220.45,890.09,1205.93,887.42,1189.96z"/>
	<path class="st13" d="M938.37,1446.53c0,0-10.84,8.13-2.67,13.45c8.17,5.32,22.76,6.75,22.82,3.26
		C958.72,1451.54,952.88,1443.21,938.37,1446.53z"/>
	<path class="st17" d="M2961.69,1809.23H175.96c-1.64,0-2.99-1.34-2.99-2.99v-0.63c0-1.64,1.34-2.99,2.99-2.99h2785.73
		c1.64,0,2.99,1.34,2.99,2.99v0.63C2964.68,1807.88,2963.33,1809.23,2961.69,1809.23z"/>
	<path class="st10" d="M1095.28,1000.26c-1.26-5.21,1.02-9.29,5.84-9.3c4.8-0.01,9.01,4.01,10.29,9.27c1.26,5.21-0.99,9.29-5.84,9.3
		C1100.71,1009.54,1096.55,1005.52,1095.28,1000.26z M1107.31,1000.24c-0.79-3.26-2.99-5.72-5.38-5.71c-2.39,0-3.36,2.39-2.56,5.73
		c0.79,3.28,2.97,5.72,5.38,5.71C1107.16,1005.96,1108.11,1003.55,1107.31,1000.24z"/>
	<path class="st6" d="M1025.56,865.34l-2.98,0.77l-1.61-3.23l4.84-1.55l2.72,0l4.38,18.08l-3.94,0.01L1025.56,865.34z"/>
	<path class="st6" d="M1039.71,870.42c-1.26-5.21,1.02-9.29,5.84-9.3c4.8-0.01,9.01,4.01,10.29,9.27c1.26,5.21-0.99,9.29-5.84,9.3
		C1045.15,879.7,1040.98,875.68,1039.71,870.42z M1051.74,870.4c-0.79-3.26-2.99-5.72-5.38-5.71c-2.38,0-3.36,2.39-2.56,5.73
		c0.79,3.28,2.97,5.72,5.38,5.71C1051.6,876.12,1052.54,873.71,1051.74,870.4z"/>
	<path class="st6" d="M1357.45,864.73l-2.98,0.77l-1.61-3.23l4.84-1.55l2.72,0l4.38,18.08l-3.94,0.01L1357.45,864.73z"/>
	<path class="st6" d="M1371.6,869.81c-1.26-5.21,1.02-9.29,5.84-9.3c4.8-0.01,9.01,4.01,10.29,9.27c1.26,5.21-0.99,9.29-5.84,9.3
		C1377.03,879.09,1372.87,875.07,1371.6,869.81z M1383.63,869.79c-0.79-3.26-2.99-5.72-5.38-5.71c-2.39,0-3.36,2.39-2.56,5.73
		c0.79,3.28,2.97,5.72,5.38,5.71C1383.48,875.52,1384.43,873.1,1383.63,869.79z"/>
	<path class="st6" d="M1395.71,869.77c-1.26-5.21,1.02-9.29,5.84-9.3c4.8-0.01,9.01,4.01,10.29,9.27c1.26,5.21-0.99,9.29-5.84,9.3
		C1401.15,879.05,1396.98,875.03,1395.71,869.77z M1407.74,869.75c-0.79-3.26-2.99-5.72-5.38-5.71c-2.39,0-3.36,2.39-2.56,5.73
		c0.79,3.28,2.97,5.72,5.38,5.71C1407.6,875.48,1408.54,873.06,1407.74,869.75z"/>
	<path class="st6" d="M1519.04,869.81c-1.26-5.21,1.02-9.29,5.84-9.3c4.8-0.01,9.01,4.01,10.29,9.27c1.26,5.21-0.99,9.29-5.84,9.3
		C1524.48,879.09,1520.32,875.07,1519.04,869.81z M1531.08,869.79c-0.79-3.26-2.99-5.72-5.38-5.71c-2.39,0-3.36,2.39-2.56,5.73
		c0.79,3.28,2.97,5.72,5.38,5.71C1530.93,875.52,1531.88,873.1,1531.08,869.79z"/>
	<path class="st6" d="M1543.16,869.77c-1.26-5.21,1.02-9.29,5.84-9.3c4.8-0.01,9.01,4.01,10.29,9.27c1.26,5.21-0.99,9.29-5.84,9.3
		C1548.6,879.05,1544.43,875.03,1543.16,869.77z M1555.19,869.75c-0.79-3.26-2.99-5.72-5.38-5.71c-2.38,0-3.36,2.39-2.56,5.73
		c0.79,3.28,2.97,5.72,5.38,5.71C1555.05,875.48,1555.99,873.06,1555.19,869.75z"/>
	<path class="st6" d="M1567.27,869.73c-1.26-5.21,1.02-9.29,5.84-9.3c4.8-0.01,9.01,4.01,10.29,9.27c1.26,5.21-0.99,9.29-5.84,9.3
		C1572.71,879.01,1568.55,874.99,1567.27,869.73z M1579.31,869.71c-0.79-3.26-2.99-5.72-5.38-5.71c-2.39,0-3.36,2.39-2.56,5.73
		c0.79,3.28,2.97,5.72,5.38,5.71C1579.16,875.44,1580.11,873.02,1579.31,869.71z"/>
	<path class="st6" d="M1734.93,869.32c-1.26-5.21,1.02-9.29,5.84-9.3c4.8-0.01,9.01,4.01,10.29,9.27c1.26,5.21-0.99,9.29-5.84,9.3
		S1736.2,874.58,1734.93,869.32z M1746.96,869.3c-0.79-3.26-2.99-5.72-5.38-5.71c-2.39,0-3.36,2.39-2.56,5.73
		c0.79,3.28,2.97,5.72,5.38,5.71C1746.81,875.03,1747.76,872.61,1746.96,869.3z"/>
	<path class="st6" d="M1758,869.28c-1.26-5.21,1.02-9.29,5.84-9.3c4.8-0.01,9.01,4.01,10.29,9.27c1.26,5.21-0.99,9.29-5.84,9.3
		C1763.44,878.56,1759.28,874.54,1758,869.28z M1770.04,869.26c-0.79-3.26-2.99-5.72-5.38-5.71c-2.39,0-3.36,2.39-2.56,5.73
		c0.79,3.28,2.97,5.72,5.38,5.71C1769.89,874.99,1770.84,872.57,1770.04,869.26z"/>
	<path class="st6" d="M1783.11,869.24c-1.26-5.21,1.02-9.29,5.84-9.3c4.8-0.01,9.01,4.01,10.29,9.27c1.26,5.21-0.99,9.29-5.84,9.3
		S1784.38,874.5,1783.11,869.24z M1795.14,869.22c-0.79-3.26-2.99-5.72-5.38-5.71c-2.39,0-3.36,2.39-2.56,5.73
		c0.79,3.28,2.97,5.72,5.38,5.71C1794.99,874.94,1795.94,872.53,1795.14,869.22z"/>
	<path class="st6" d="M1824.1,869.17c-1.26-5.21,1.02-9.29,5.84-9.3c4.8-0.01,9.01,4.01,10.29,9.27c1.26,5.21-0.99,9.29-5.84,9.3
		C1829.54,878.45,1825.37,874.43,1824.1,869.17z M1836.13,869.15c-0.79-3.26-2.99-5.72-5.38-5.71c-2.39,0-3.36,2.39-2.56,5.73
		c0.79,3.28,2.97,5.72,5.38,5.71C1835.99,874.88,1836.93,872.46,1836.13,869.15z"/>
	<path class="st6" d="M1850.07,864.02l-2.98,0.77l-1.61-3.23l4.84-1.55l2.72,0l4.38,18.08l-3.94,0.01L1850.07,864.02z"/>
	<path class="st6" d="M1864.22,869.11c-1.26-5.21,1.02-9.29,5.84-9.3c4.8-0.01,9.01,4.01,10.29,9.27c1.26,5.21-0.99,9.29-5.84,9.3
		S1865.49,874.36,1864.22,869.11z M1876.25,869.09c-0.79-3.26-2.99-5.72-5.38-5.71s-3.36,2.39-2.56,5.73
		c0.79,3.28,2.97,5.72,5.38,5.71C1876.1,874.81,1877.05,872.39,1876.25,869.09z"/>
	<path class="st6" d="M1904.4,869c-1.26-5.21,1.02-9.29,5.84-9.3c4.8-0.01,9.01,4.01,10.29,9.27c1.26,5.21-0.99,9.29-5.84,9.3
		C1909.84,878.28,1905.67,874.25,1904.4,869z M1916.43,868.98c-0.79-3.26-2.99-5.72-5.38-5.71s-3.36,2.39-2.56,5.73
		c0.79,3.28,2.97,5.72,5.38,5.71C1916.29,874.7,1917.23,872.29,1916.43,868.98z"/>
	<path class="st6" d="M1208.96,909.23c-1.26-5.21,1.02-9.29,5.84-9.3c4.8-0.01,9.01,4.01,10.29,9.27c1.26,5.21-0.99,9.29-5.84,9.3
		C1214.4,918.51,1210.23,914.49,1208.96,909.23z M1220.99,909.21c-0.79-3.26-2.99-5.72-5.38-5.71c-2.39,0-3.36,2.39-2.56,5.73
		c0.79,3.28,2.97,5.72,5.38,5.71C1220.85,914.93,1221.79,912.52,1220.99,909.21z"/>
	<path class="st6" d="M1233.07,909.19c-1.26-5.21,1.02-9.29,5.84-9.3c4.8-0.01,9.01,4.01,10.29,9.27c1.26,5.21-0.99,9.29-5.84,9.3
		C1238.51,918.47,1234.35,914.45,1233.07,909.19z M1245.11,909.17c-0.79-3.26-2.99-5.72-5.38-5.71c-2.39,0-3.36,2.39-2.56,5.73
		c0.79,3.28,2.97,5.72,5.38,5.71C1244.96,914.89,1245.91,912.48,1245.11,909.17z"/>
	<path class="st6" d="M1833.56,908.26c-1.26-5.21,1.02-9.29,5.84-9.3c4.8-0.01,9.01,4.01,10.29,9.27c1.26,5.21-0.99,9.29-5.84,9.3
		S1834.84,913.51,1833.56,908.26z M1845.6,908.24c-0.79-3.26-2.99-5.72-5.38-5.71c-2.39,0-3.36,2.39-2.56,5.73
		c0.79,3.28,2.97,5.72,5.38,5.71C1845.45,913.96,1846.4,911.54,1845.6,908.24z"/>
	<path class="st6" d="M1859.53,903.11l-2.98,0.77l-1.61-3.23l4.84-1.55l2.72,0l4.38,18.08l-3.94,0.01L1859.53,903.11z"/>
	<path class="st6" d="M1873.68,908.19c-1.26-5.21,1.02-9.29,5.84-9.3c4.8-0.01,9.01,4.01,10.29,9.27c1.26,5.21-0.99,9.29-5.84,9.3
		C1879.12,917.47,1874.95,913.45,1873.68,908.19z M1885.71,908.17c-0.79-3.26-2.99-5.72-5.38-5.71c-2.38,0-3.36,2.39-2.56,5.73
		c0.79,3.28,2.97,5.72,5.38,5.71C1885.57,913.89,1886.51,911.48,1885.71,908.17z"/>
	<path class="st6" d="M1962.1,908c-1.26-5.21,1.02-9.29,5.84-9.3c4.8-0.01,9.01,4.01,10.29,9.27c1.26,5.21-0.99,9.29-5.84,9.3
		C1967.53,917.28,1963.37,913.26,1962.1,908z M1974.13,907.98c-0.79-3.26-2.99-5.72-5.38-5.71c-2.39,0-3.36,2.39-2.56,5.73
		c0.79,3.28,2.97,5.72,5.38,5.71S1974.93,911.29,1974.13,907.98z"/>
	<path class="st6" d="M1988.06,902.85l-2.98,0.77l-1.61-3.23l4.84-1.55l2.72,0l4.38,18.08l-3.94,0.01L1988.06,902.85z"/>
	<path class="st6" d="M1188.67,1120.23c-1.26-5.21,1.02-9.29,5.84-9.3c4.8-0.01,9.01,4.01,10.29,9.27c1.26,5.21-0.99,9.29-5.84,9.3
		C1194.11,1129.51,1189.94,1125.49,1188.67,1120.23z M1200.7,1120.21c-0.79-3.26-2.99-5.72-5.38-5.71c-2.39,0-3.36,2.39-2.56,5.73
		c0.79,3.28,2.97,5.72,5.38,5.71S1201.5,1123.52,1200.7,1120.21z"/>
	<path class="st6" d="M1212.79,1120.19c-1.26-5.21,1.02-9.29,5.84-9.3c4.8-0.01,9.01,4.01,10.29,9.27c1.26,5.21-0.99,9.29-5.84,9.3
		C1218.22,1129.47,1214.06,1125.45,1212.79,1120.19z M1224.82,1120.17c-0.79-3.26-2.99-5.72-5.38-5.71c-2.39,0-3.36,2.39-2.56,5.73
		c0.8,3.28,2.97,5.72,5.38,5.71C1224.67,1125.89,1225.62,1123.48,1224.82,1120.17z"/>
	<path class="st6" d="M1238.75,1115.04l-2.98,0.77l-1.61-3.23l4.84-1.55l2.72,0l4.38,18.08l-3.94,0.01L1238.75,1115.04z"/>
	<path class="st6" d="M1277.02,1120.08c-1.26-5.21,1.02-9.29,5.84-9.3c4.8-0.01,9.01,4.01,10.29,9.27c1.26,5.21-0.99,9.29-5.84,9.3
		C1282.45,1129.36,1278.29,1125.34,1277.02,1120.08z M1289.05,1120.06c-0.79-3.26-2.99-5.72-5.38-5.71c-2.39,0-3.36,2.39-2.56,5.73
		c0.79,3.28,2.97,5.72,5.38,5.71C1288.9,1125.79,1289.85,1123.37,1289.05,1120.06z"/>
	<path class="st6" d="M1301.13,1120.04c-1.26-5.21,1.02-9.29,5.84-9.3c4.8-0.01,9.01,4.01,10.29,9.27c1.26,5.21-0.99,9.29-5.84,9.3
		C1306.57,1129.32,1302.4,1125.3,1301.13,1120.04z M1313.16,1120.02c-0.79-3.26-2.99-5.72-5.38-5.71c-2.39,0-3.36,2.39-2.56,5.73
		c0.79,3.28,2.97,5.72,5.38,5.71C1313.02,1125.75,1313.96,1123.33,1313.16,1120.02z"/>
	<path class="st6" d="M1325.25,1120c-1.26-5.21,1.02-9.29,5.84-9.3c4.8-0.01,9.01,4.01,10.29,9.27c1.26,5.21-0.99,9.29-5.84,9.3
		C1330.68,1129.28,1326.52,1125.26,1325.25,1120z M1337.28,1119.98c-0.79-3.26-2.99-5.72-5.38-5.71c-2.39,0-3.36,2.39-2.56,5.73
		c0.79,3.28,2.97,5.72,5.38,5.71C1337.13,1125.71,1338.08,1123.29,1337.28,1119.98z"/>
	<path class="st6" d="M1626.31,1120.23c-1.26-5.21,1.02-9.29,5.84-9.3c4.8-0.01,9.01,4.01,10.29,9.27c1.26,5.21-0.99,9.29-5.84,9.3
		C1631.74,1129.51,1627.58,1125.49,1626.31,1120.23z M1638.34,1120.21c-0.79-3.26-2.99-5.72-5.38-5.71c-2.39,0-3.36,2.39-2.56,5.73
		c0.79,3.28,2.97,5.72,5.38,5.71S1639.14,1123.52,1638.34,1120.21z"/>
	<path class="st6" d="M1650.42,1120.19c-1.26-5.21,1.02-9.29,5.84-9.3c4.8-0.01,9.01,4.01,10.29,9.27c1.26,5.21-0.99,9.29-5.84,9.3
		C1655.86,1129.47,1651.69,1125.45,1650.42,1120.19z M1662.45,1120.17c-0.79-3.26-2.99-5.72-5.38-5.71c-2.38,0-3.36,2.39-2.56,5.73
		c0.79,3.28,2.97,5.72,5.38,5.71C1662.31,1125.89,1663.25,1123.48,1662.45,1120.17z"/>
	<path class="st6" d="M1676.39,1115.04l-2.98,0.77l-1.61-3.23l4.84-1.55l2.72,0l4.38,18.08l-3.94,0.01L1676.39,1115.04z"/>
	<path class="st6" d="M1787.98,1120.23c-1.26-5.21,1.02-9.29,5.84-9.3c4.8-0.01,9.01,4.01,10.29,9.27c1.26,5.21-0.99,9.29-5.84,9.3
		S1789.25,1125.49,1787.98,1120.23z M1800.01,1120.21c-0.79-3.26-2.99-5.72-5.38-5.71s-3.36,2.39-2.56,5.73
		c0.79,3.28,2.97,5.72,5.38,5.71S1800.81,1123.52,1800.01,1120.21z"/>
	<path class="st6" d="M1812.1,1120.19c-1.26-5.21,1.02-9.29,5.84-9.3c4.8-0.01,9.01,4.01,10.29,9.27c1.26,5.21-0.99,9.29-5.84,9.3
		C1817.53,1129.47,1813.37,1125.45,1812.1,1120.19z M1824.13,1120.17c-0.79-3.26-2.99-5.72-5.38-5.71c-2.38,0-3.36,2.39-2.56,5.73
		c0.79,3.28,2.97,5.72,5.38,5.71C1823.98,1125.89,1824.93,1123.48,1824.13,1120.17z"/>
	<path class="st6" d="M1838.06,1115.04l-2.98,0.77l-1.61-3.23l4.84-1.55l2.72,0l4.38,18.08l-3.94,0.01L1838.06,1115.04z"/>
	<path class="st6" d="M1714.65,1120.08c-1.26-5.21,1.02-9.29,5.84-9.3c4.8-0.01,9.01,4.01,10.29,9.27c1.26,5.21-0.99,9.29-5.84,9.3
		C1720.09,1129.36,1715.92,1125.34,1714.65,1120.08z M1726.68,1120.06c-0.79-3.26-2.99-5.72-5.38-5.71c-2.39,0-3.36,2.39-2.56,5.73
		c0.79,3.28,2.97,5.72,5.38,5.71C1726.54,1125.79,1727.48,1123.37,1726.68,1120.06z"/>
	<path class="st6" d="M1738.77,1120.04c-1.26-5.21,1.02-9.29,5.84-9.3c4.8-0.01,9.01,4.01,10.29,9.27c1.26,5.21-0.99,9.29-5.84,9.3
		S1740.04,1125.3,1738.77,1120.04z M1750.8,1120.02c-0.79-3.26-2.99-5.72-5.38-5.71c-2.38,0-3.36,2.39-2.56,5.73
		c0.79,3.28,2.97,5.72,5.38,5.71C1750.65,1125.75,1751.6,1123.33,1750.8,1120.02z"/>
	<path class="st6" d="M1762.88,1120c-1.26-5.21,1.02-9.29,5.84-9.3c4.8-0.01,9.01,4.01,10.29,9.27c1.26,5.21-0.99,9.29-5.84,9.3
		C1768.32,1129.28,1764.15,1125.26,1762.88,1120z M1774.91,1119.98c-0.79-3.26-2.99-5.72-5.38-5.71s-3.36,2.39-2.56,5.73
		c0.79,3.28,2.97,5.72,5.38,5.71C1774.77,1125.71,1775.71,1123.29,1774.91,1119.98z"/>
	<path class="st6" d="M1407.72,1119.6c-1.26-5.21,1.02-9.29,5.84-9.3c4.8-0.01,9.01,4.01,10.29,9.27c1.26,5.21-0.99,9.29-5.84,9.3
		C1413.16,1128.88,1408.99,1124.85,1407.72,1119.6z M1419.75,1119.58c-0.79-3.26-2.99-5.72-5.38-5.71c-2.39,0-3.36,2.39-2.56,5.73
		c0.79,3.28,2.97,5.72,5.38,5.71S1420.55,1122.88,1419.75,1119.58z"/>
	<path class="st6" d="M1433.69,1114.45l-2.98,0.77l-1.61-3.23l4.84-1.55l2.72,0l4.38,18.08l-3.94,0.01L1433.69,1114.45z"/>
	<path class="st6" d="M1447.84,1119.53c-1.26-5.21,1.02-9.29,5.84-9.3c4.8-0.01,9.01,4.01,10.29,9.27c1.26,5.21-0.99,9.29-5.84,9.3
		C1453.27,1128.81,1449.11,1124.79,1447.84,1119.53z M1459.87,1119.51c-0.79-3.26-2.99-5.72-5.38-5.71c-2.39,0-3.36,2.39-2.56,5.73
		c0.79,3.28,2.97,5.72,5.38,5.71C1459.72,1125.23,1460.67,1122.82,1459.87,1119.51z"/>
	<path class="st6" d="M1924.81,1119.03c-1.26-5.21,1.02-9.29,5.84-9.3c4.8-0.01,9.01,4.01,10.29,9.27c1.26,5.21-0.99,9.29-5.84,9.3
		C1930.25,1128.31,1926.08,1124.29,1924.81,1119.03z M1936.84,1119.01c-0.79-3.26-2.99-5.72-5.38-5.71s-3.36,2.39-2.56,5.73
		c0.79,3.28,2.97,5.72,5.38,5.71C1936.7,1124.73,1937.64,1122.32,1936.84,1119.01z"/>
	<path class="st6" d="M1950.78,1113.88l-2.98,0.78l-1.61-3.23l4.84-1.55l2.72,0l4.38,18.08l-3.94,0.01L1950.78,1113.88z"/>
	<path class="st6" d="M1964.93,1118.96c-1.26-5.21,1.02-9.29,5.84-9.3c4.8-0.01,9.01,4.01,10.29,9.27c1.26,5.21-0.99,9.29-5.84,9.3
		C1970.36,1128.24,1966.2,1124.22,1964.93,1118.96z M1976.96,1118.94c-0.79-3.26-2.99-5.72-5.38-5.71s-3.36,2.39-2.56,5.73
		c0.79,3.28,2.97,5.72,5.38,5.71C1976.81,1124.66,1977.76,1122.25,1976.96,1118.94z"/>
	<path class="st6" d="M1046.02,949.82l-2.98,0.77l-1.61-3.23l4.84-1.55l2.72,0l4.38,18.08l-3.94,0.01L1046.02,949.82z"/>
	<path class="st6" d="M1060.17,954.9c-1.26-5.21,1.02-9.29,5.84-9.3c4.8-0.01,9.01,4.01,10.29,9.27c1.26,5.21-0.99,9.29-5.84,9.3
		C1065.6,964.18,1061.44,960.16,1060.17,954.9z M1072.2,954.88c-0.79-3.26-2.99-5.72-5.38-5.71c-2.39,0-3.36,2.39-2.56,5.73
		c0.79,3.28,2.97,5.72,5.38,5.71C1072.05,960.6,1073,958.19,1072.2,954.88z"/>
	<path class="st6" d="M1196.74,954.67c-1.26-5.21,1.02-9.29,5.84-9.3c4.8-0.01,9.01,4.01,10.29,9.27c1.26,5.21-0.99,9.29-5.84,9.3
		C1202.18,963.95,1198.02,959.93,1196.74,954.67z M1208.78,954.65c-0.79-3.26-2.99-5.72-5.38-5.71c-2.39,0-3.36,2.39-2.56,5.73
		c0.79,3.28,2.97,5.72,5.38,5.71C1208.63,960.37,1209.58,957.96,1208.78,954.65z"/>
	<path class="st6" d="M1220.86,954.63c-1.26-5.21,1.02-9.29,5.84-9.3c4.8-0.01,9.01,4.01,10.29,9.27c1.26,5.21-0.99,9.29-5.84,9.3
		C1226.3,963.91,1222.13,959.89,1220.86,954.63z M1232.89,954.61c-0.79-3.26-2.99-5.72-5.38-5.71c-2.39,0-3.36,2.39-2.56,5.73
		c0.79,3.28,2.97,5.72,5.38,5.71C1232.75,960.33,1233.69,957.92,1232.89,954.61z"/>
	<path class="st6" d="M1244.97,954.59c-1.26-5.21,1.02-9.29,5.84-9.3c4.8-0.01,9.01,4.01,10.29,9.27c1.26,5.21-0.99,9.29-5.84,9.3
		S1246.25,959.85,1244.97,954.59z M1257.01,954.57c-0.79-3.26-2.99-5.72-5.38-5.71c-2.39,0-3.36,2.39-2.56,5.73
		c0.79,3.28,2.97,5.72,5.38,5.71C1256.86,960.29,1257.81,957.88,1257.01,954.57z"/>
	<path class="st6" d="M1270.94,949.44l-2.98,0.77l-1.61-3.23l4.84-1.55l2.72,0l4.38,18.08l-3.94,0.01L1270.94,949.44z"/>
	<path class="st6" d="M1287.07,949.41l-2.98,0.78l-1.61-3.23l4.84-1.55l2.72,0l4.38,18.08l-3.94,0.01L1287.07,949.41z"/>
	<path class="st6" d="M1301.22,954.49c-1.26-5.21,1.02-9.29,5.84-9.3c4.8-0.01,9.01,4.01,10.29,9.27c1.26,5.21-0.99,9.29-5.84,9.3
		C1306.66,963.77,1302.49,959.75,1301.22,954.49z M1313.25,954.47c-0.79-3.26-2.99-5.72-5.38-5.71c-2.39,0-3.36,2.39-2.56,5.73
		c0.79,3.28,2.97,5.72,5.38,5.71C1313.1,960.2,1314.05,957.78,1313.25,954.47z"/>
	<path class="st10" d="M1924.86,953.48c-1.26-5.21,1.02-9.29,5.84-9.3c4.8-0.01,9.01,4.01,10.29,9.27c1.26,5.21-0.99,9.29-5.84,9.3
		C1930.29,962.76,1926.13,958.74,1924.86,953.48z M1936.89,953.46c-0.79-3.26-2.99-5.72-5.38-5.71s-3.36,2.39-2.56,5.73
		c0.79,3.28,2.97,5.72,5.38,5.71C1936.74,959.18,1937.69,956.77,1936.89,953.46z"/>
	<path class="st10" d="M1948.97,953.44c-1.26-5.21,1.02-9.29,5.84-9.3c4.8-0.01,9.01,4.01,10.29,9.27c1.26,5.21-0.99,9.29-5.84,9.3
		C1954.41,962.72,1950.25,958.7,1948.97,953.44z M1961,953.42c-0.79-3.26-2.99-5.72-5.38-5.71c-2.39,0-3.36,2.39-2.56,5.73
		c0.79,3.28,2.97,5.72,5.38,5.71C1960.86,959.14,1961.8,956.73,1961,953.42z"/>
	<path class="st6" d="M1973.09,953.4c-1.26-5.21,1.02-9.29,5.84-9.3c4.8-0.01,9.01,4.01,10.29,9.27c1.26,5.21-0.99,9.29-5.84,9.3
		C1978.53,962.68,1974.36,958.66,1973.09,953.4z M1985.12,953.38c-0.79-3.26-2.99-5.72-5.38-5.71c-2.39,0-3.36,2.39-2.56,5.73
		c0.79,3.28,2.97,5.72,5.38,5.71C1984.97,959.1,1985.92,956.69,1985.12,953.38z"/>
	<path class="st6" d="M1999.05,948.25l-2.98,0.77l-1.61-3.23l4.84-1.55l2.72,0l4.38,18.08l-3.94,0.01L1999.05,948.25z"/>
	<path class="st6" d="M1057.01,995.22l-2.98,0.77l-1.61-3.23l4.84-1.55l2.72,0l4.38,18.08l-3.94,0.01L1057.01,995.22z"/>
	<path class="st6" d="M1071.16,1000.3c-1.26-5.21,1.02-9.29,5.84-9.3c4.8-0.01,9.01,4.01,10.29,9.27c1.26,5.21-0.99,9.29-5.84,9.3
		C1076.6,1009.58,1072.43,1005.56,1071.16,1000.3z M1083.19,1000.28c-0.79-3.26-2.99-5.72-5.38-5.71c-2.39,0-3.36,2.39-2.56,5.73
		c0.8,3.28,2.97,5.72,5.38,5.71C1083.05,1006,1083.99,1003.59,1083.19,1000.28z"/>
	<path class="st6" d="M1183.62,1000.11c-1.26-5.21,1.02-9.29,5.84-9.3c4.8-0.01,9.01,4.01,10.29,9.27c1.26,5.21-0.99,9.29-5.84,9.3
		C1189.06,1009.39,1184.89,1005.37,1183.62,1000.11z M1195.65,1000.09c-0.79-3.26-2.99-5.72-5.38-5.71c-2.39,0-3.36,2.39-2.56,5.73
		c0.79,3.28,2.97,5.72,5.38,5.71C1195.51,1005.81,1196.45,1003.4,1195.65,1000.09z"/>
	<path class="st6" d="M1207.74,1000.07c-1.26-5.21,1.02-9.29,5.84-9.3c4.8-0.01,9.01,4.01,10.29,9.27c1.26,5.21-0.99,9.29-5.84,9.3
		C1213.17,1009.35,1209.01,1005.33,1207.74,1000.07z M1219.77,1000.05c-0.79-3.26-2.99-5.72-5.38-5.71c-2.39,0-3.36,2.39-2.56,5.73
		c0.79,3.28,2.97,5.72,5.38,5.71C1219.62,1005.77,1220.57,1003.36,1219.77,1000.05z"/>
	<path class="st10" d="M1116.28,1087.96c-1.26-5.21,1.02-9.29,5.84-9.3c4.8-0.01,9.01,4.01,10.29,9.27c1.26,5.21-0.99,9.29-5.84,9.3
		C1121.71,1097.23,1117.55,1093.21,1116.28,1087.96z M1128.31,1087.94c-0.79-3.26-2.99-5.72-5.38-5.71c-2.39,0-3.36,2.39-2.56,5.73
		c0.79,3.28,2.97,5.72,5.38,5.71S1129.11,1091.24,1128.31,1087.94z"/>
	<path class="st10" d="M1142.24,1082.81l-2.98,0.77l-1.61-3.23l4.84-1.55l2.72,0l4.38,18.08l-3.94,0.01L1142.24,1082.81z"/>
	<path class="st6" d="M1067.02,1037.51l-2.98,0.77l-1.61-3.23l4.84-1.55l2.72,0l4.38,18.08l-3.94,0.01L1067.02,1037.51z"/>
	<path class="st6" d="M1081.17,1042.6c-1.26-5.21,1.02-9.29,5.84-9.3c4.8-0.01,9.01,4.01,10.29,9.27c1.26,5.21-0.99,9.29-5.84,9.3
		C1086.61,1051.88,1082.44,1047.85,1081.17,1042.6z M1093.2,1042.58c-0.79-3.26-2.99-5.72-5.38-5.71c-2.39,0-3.36,2.39-2.56,5.73
		c0.79,3.28,2.97,5.72,5.38,5.71S1094,1045.88,1093.2,1042.58z"/>
	<path class="st6" d="M1105.28,1042.56c-1.26-5.21,1.02-9.29,5.84-9.3c4.8-0.01,9.01,4.01,10.29,9.27c1.26,5.21-0.99,9.29-5.84,9.3
		C1110.72,1051.83,1106.56,1047.81,1105.28,1042.56z M1117.32,1042.54c-0.79-3.26-2.99-5.72-5.38-5.71c-2.39,0-3.36,2.39-2.56,5.73
		c0.79,3.28,2.97,5.72,5.38,5.71S1118.12,1045.84,1117.32,1042.54z"/>
	<path class="st6" d="M1131.25,1037.41l-2.98,0.78l-1.61-3.23l4.84-1.55l2.72,0l4.38,18.08l-3.94,0.01L1131.25,1037.41z"/>
	<path class="st6" d="M1145.4,1042.49c-1.26-5.21,1.02-9.29,5.84-9.3c4.8-0.01,9.01,4.01,10.29,9.27c1.26,5.21-0.99,9.29-5.84,9.3
		C1150.84,1051.77,1146.67,1047.75,1145.4,1042.49z M1157.43,1042.47c-0.79-3.26-2.99-5.72-5.38-5.71c-2.39,0-3.36,2.39-2.56,5.73
		c0.79,3.28,2.97,5.72,5.38,5.71C1157.29,1048.19,1158.23,1045.78,1157.43,1042.47z"/>
	<path class="st6" d="M1169.51,1042.45c-1.26-5.21,1.02-9.29,5.84-9.3c4.8-0.01,9.01,4.01,10.29,9.27c1.26,5.21-0.99,9.29-5.84,9.3
		C1174.95,1051.73,1170.79,1047.71,1169.51,1042.45z M1181.55,1042.43c-0.79-3.26-2.99-5.72-5.38-5.71c-2.39,0-3.36,2.39-2.56,5.73
		c0.79,3.28,2.97,5.72,5.38,5.71C1181.4,1048.15,1182.35,1045.74,1181.55,1042.43z"/>
	<path class="st6" d="M1193.63,1042.41c-1.26-5.21,1.02-9.29,5.84-9.3c4.8-0.01,9.01,4.01,10.29,9.27c1.26,5.21-0.99,9.29-5.84,9.3
		C1199.07,1051.69,1194.9,1047.67,1193.63,1042.41z M1205.66,1042.39c-0.79-3.26-2.99-5.72-5.38-5.71c-2.39,0-3.36,2.39-2.56,5.73
		c0.79,3.28,2.97,5.72,5.38,5.71C1205.52,1048.11,1206.46,1045.7,1205.66,1042.39z"/>
	<path class="st6" d="M1217.75,1042.37c-1.26-5.21,1.02-9.29,5.84-9.3c4.8-0.01,9.01,4.01,10.29,9.27c1.26,5.21-0.99,9.29-5.84,9.3
		C1223.18,1051.65,1219.02,1047.62,1217.75,1042.37z M1229.78,1042.35c-0.79-3.26-2.99-5.72-5.38-5.71c-2.39,0-3.36,2.39-2.56,5.73
		c0.79,3.28,2.97,5.72,5.38,5.71C1229.63,1048.07,1230.58,1045.65,1229.78,1042.35z"/>
	<path class="st6" d="M1241.86,1042.33c-1.26-5.21,1.02-9.29,5.84-9.3c4.8-0.01,9.01,4.01,10.29,9.27c1.26,5.21-0.99,9.29-5.84,9.3
		C1247.3,1051.61,1243.13,1047.58,1241.86,1042.33z M1253.89,1042.31c-0.79-3.26-2.99-5.72-5.38-5.71c-2.39,0-3.36,2.39-2.56,5.73
		c0.79,3.28,2.97,5.72,5.38,5.71C1253.75,1048.03,1254.69,1045.61,1253.89,1042.31z"/>
	<path class="st6" d="M1265.98,1042.29c-1.26-5.21,1.02-9.29,5.84-9.3c4.8-0.01,9.01,4.01,10.29,9.27c1.26,5.21-0.99,9.29-5.84,9.3
		C1271.41,1051.56,1267.25,1047.54,1265.98,1042.29z M1278.01,1042.27c-0.79-3.26-2.99-5.72-5.38-5.71c-2.39,0-3.36,2.39-2.56,5.73
		c0.79,3.28,2.97,5.72,5.38,5.71S1278.81,1045.57,1278.01,1042.27z"/>
	<path class="st6" d="M1291.94,1037.14l-2.98,0.77l-1.61-3.23l4.84-1.55l2.72,0l4.38,18.08l-3.94,0.01L1291.94,1037.14z"/>
	<path class="st6" d="M1308.07,1037.11l-2.98,0.77l-1.61-3.23l4.84-1.55l2.72,0l4.38,18.08l-3.94,0.01L1308.07,1037.11z"/>
	<path class="st6" d="M1322.22,1042.19c-1.26-5.21,1.02-9.29,5.84-9.3c4.8-0.01,9.01,4.01,10.29,9.27c1.26,5.21-0.99,9.29-5.84,9.3
		C1327.66,1051.47,1323.49,1047.45,1322.22,1042.19z M1334.25,1042.17c-0.79-3.26-2.99-5.72-5.38-5.71c-2.39,0-3.36,2.39-2.56,5.73
		c0.79,3.28,2.97,5.72,5.38,5.71C1334.11,1047.89,1335.05,1045.48,1334.25,1042.17z"/>
	<path class="st6" d="M1078.01,1082.91l-2.98,0.77l-1.61-3.23l4.84-1.55l2.72,0l4.38,18.08l-3.94,0.01L1078.01,1082.91z"/>
	<path class="st6" d="M1092.16,1088c-1.26-5.21,1.02-9.29,5.84-9.3c4.8-0.01,9.01,4.01,10.29,9.27c1.26,5.21-0.99,9.29-5.84,9.3
		C1097.6,1097.28,1093.44,1093.25,1092.16,1088z M1104.19,1087.98c-0.79-3.26-2.99-5.72-5.38-5.71c-2.39,0-3.36,2.39-2.56,5.73
		c0.79,3.28,2.97,5.72,5.38,5.71S1104.99,1091.28,1104.19,1087.98z"/>
	<path class="st6" d="M1156.39,1087.89c-1.26-5.21,1.02-9.29,5.84-9.3c4.8-0.01,9.01,4.01,10.29,9.27c1.26,5.21-0.99,9.29-5.84,9.3
		C1161.83,1097.17,1157.67,1093.15,1156.39,1087.89z M1168.42,1087.87c-0.79-3.26-2.99-5.72-5.38-5.71c-2.39,0-3.36,2.39-2.56,5.73
		c0.79,3.28,2.97,5.72,5.38,5.71C1168.28,1093.59,1169.23,1091.18,1168.42,1087.87z"/>
	<path class="st6" d="M1180.51,1087.85c-1.26-5.21,1.02-9.29,5.84-9.3c4.8-0.01,9.01,4.01,10.29,9.27c1.26,5.21-0.99,9.29-5.84,9.3
		C1185.94,1097.13,1181.78,1093.1,1180.51,1087.85z M1192.54,1087.83c-0.79-3.26-2.99-5.72-5.38-5.71c-2.39,0-3.36,2.39-2.56,5.73
		c0.79,3.28,2.97,5.72,5.38,5.71C1192.39,1093.55,1193.34,1091.14,1192.54,1087.83z"/>
	<path class="st6" d="M1137.6,1188.62c-1.26-5.21,1.02-9.29,5.84-9.3c4.8-0.01,9.01,4.01,10.29,9.27c1.26,5.21-0.99,9.29-5.84,9.3
		C1143.04,1197.9,1138.88,1193.88,1137.6,1188.62z M1149.63,1188.6c-0.79-3.26-2.99-5.72-5.38-5.71c-2.39,0-3.36,2.39-2.56,5.73
		c0.79,3.28,2.97,5.72,5.38,5.71C1149.49,1194.32,1150.44,1191.91,1149.63,1188.6z"/>
	<path class="st6" d="M1163.57,1183.47l-2.98,0.77l-1.61-3.23l4.84-1.55l2.72,0l4.38,18.08l-3.94,0.01L1163.57,1183.47z"/>
	<path class="st6" d="M1099.34,1183.58l-2.98,0.78l-1.61-3.23l4.84-1.55l2.72,0l4.38,18.08l-3.94,0.01L1099.34,1183.58z"/>
	<path class="st6" d="M1113.49,1188.66c-1.26-5.21,1.02-9.29,5.84-9.3c4.8-0.01,9.01,4.01,10.29,9.27c1.26,5.21-0.99,9.29-5.84,9.3
		C1118.92,1197.94,1114.76,1193.92,1113.49,1188.66z M1125.52,1188.64c-0.79-3.26-2.99-5.72-5.38-5.71c-2.38,0-3.36,2.39-2.56,5.73
		c0.79,3.28,2.97,5.72,5.38,5.71C1125.37,1194.36,1126.32,1191.95,1125.52,1188.64z"/>
	<path class="st10" d="M1177.72,1188.55c-1.26-5.21,1.02-9.29,5.84-9.3c4.8-0.01,9.01,4.01,10.29,9.27c1.26,5.21-0.99,9.29-5.84,9.3
		C1183.15,1197.83,1178.99,1193.81,1177.72,1188.55z M1189.75,1188.53c-0.79-3.26-2.99-5.72-5.38-5.71c-2.39,0-3.36,2.39-2.56,5.73
		c0.79,3.28,2.97,5.72,5.38,5.71C1189.6,1194.25,1190.55,1191.84,1189.75,1188.53z"/>
	<path class="st10" d="M1201.83,1188.51c-1.26-5.21,1.02-9.29,5.84-9.3c4.8-0.01,9.01,4.01,10.29,9.27c1.26,5.21-0.99,9.29-5.84,9.3
		C1207.27,1197.79,1203.11,1193.77,1201.83,1188.51z M1213.86,1188.49c-0.79-3.26-2.99-5.72-5.38-5.71c-2.39,0-3.36,2.39-2.56,5.73
		c0.79,3.28,2.97,5.72,5.38,5.71S1214.67,1191.8,1213.86,1188.49z"/>
	<path class="st6" d="M1107.81,1221c-1.26-5.21,1.02-9.29,5.84-9.3c4.8-0.01,9.01,4.01,10.29,9.27c1.26,5.21-0.99,9.29-5.84,9.3
		C1113.24,1230.28,1109.08,1226.26,1107.81,1221z M1119.84,1220.98c-0.79-3.26-2.99-5.72-5.38-5.71c-2.39,0-3.36,2.39-2.56,5.73
		c0.79,3.28,2.97,5.72,5.38,5.71C1119.69,1226.7,1120.64,1224.29,1119.84,1220.98z"/>
	<path class="st6" d="M1133.77,1215.85l-2.98,0.78l-1.61-3.23l4.84-1.55l2.72,0l4.38,18.08l-3.94,0.01L1133.77,1215.85z"/>
	<path class="st6" d="M1147.92,1220.93c-1.26-5.21,1.02-9.29,5.84-9.3c4.8-0.01,9.01,4.01,10.29,9.27c1.26,5.21-0.99,9.29-5.84,9.3
		C1153.36,1230.21,1149.19,1226.19,1147.92,1220.93z M1159.95,1220.91c-0.79-3.26-2.99-5.72-5.38-5.71c-2.39,0-3.36,2.39-2.56,5.73
		c0.79,3.28,2.97,5.72,5.38,5.71C1159.81,1226.63,1160.75,1224.22,1159.95,1220.91z"/>
	<path class="st6" d="M1172.04,1220.89c-1.26-5.21,1.02-9.29,5.84-9.3c4.8-0.01,9.01,4.01,10.29,9.27c1.26,5.21-0.99,9.29-5.84,9.3
		C1177.47,1230.17,1173.31,1226.15,1172.04,1220.89z M1184.07,1220.87c-0.79-3.26-2.99-5.72-5.38-5.71c-2.39,0-3.36,2.39-2.56,5.73
		c0.79,3.28,2.97,5.72,5.38,5.71S1184.87,1224.18,1184.07,1220.87z"/>
	<path class="st6" d="M1204.62,1087.81c-1.26-5.21,1.02-9.29,5.84-9.3c4.8-0.01,9.01,4.01,10.29,9.27c1.26,5.21-0.99,9.29-5.84,9.3
		C1210.06,1097.09,1205.9,1093.06,1204.62,1087.81z M1216.65,1087.79c-0.79-3.26-2.99-5.72-5.38-5.71c-2.39,0-3.36,2.39-2.56,5.73
		c0.79,3.28,2.97,5.72,5.38,5.71C1216.51,1093.51,1217.46,1091.09,1216.65,1087.79z"/>
	<path class="st6" d="M1228.74,1087.77c-1.26-5.21,1.02-9.29,5.84-9.3c4.8-0.01,9.01,4.01,10.29,9.27c1.26,5.21-0.99,9.29-5.84,9.3
		C1234.18,1097.04,1230.01,1093.02,1228.74,1087.77z M1240.77,1087.75c-0.79-3.26-2.99-5.72-5.38-5.71c-2.39,0-3.36,2.39-2.56,5.73
		c0.79,3.28,2.97,5.72,5.38,5.71C1240.62,1093.47,1241.57,1091.05,1240.77,1087.75z"/>
	<path class="st10" d="M1168.23,1305.75c-1.26-5.21,1.02-9.29,5.84-9.3c4.8-0.01,9.01,4.01,10.29,9.27c1.26,5.21-0.99,9.29-5.84,9.3
		C1173.67,1315.03,1169.5,1311.01,1168.23,1305.75z M1180.26,1305.73c-0.79-3.26-2.99-5.72-5.38-5.71c-2.39,0-3.36,2.39-2.56,5.73
		c0.79,3.28,2.97,5.72,5.38,5.71S1181.06,1309.04,1180.26,1305.73z"/>
	<path class="st10" d="M1194.2,1300.6l-2.98,0.77l-1.61-3.23l4.84-1.55l2.72,0l4.38,18.08l-3.94,0.01L1194.2,1300.6z"/>
	<path class="st6" d="M1118.97,1255.31l-2.98,0.78l-1.61-3.23l4.84-1.55l2.72,0l4.38,18.08l-3.94,0.01L1118.97,1255.31z"/>
	<path class="st6" d="M1133.12,1260.39c-1.26-5.21,1.02-9.29,5.84-9.3c4.8-0.01,9.01,4.01,10.29,9.27c1.26,5.21-0.99,9.29-5.84,9.3
		C1138.56,1269.67,1134.39,1265.65,1133.12,1260.39z M1145.15,1260.37c-0.79-3.26-2.99-5.72-5.38-5.71c-2.38,0-3.36,2.39-2.56,5.73
		c0.79,3.28,2.97,5.72,5.38,5.71C1145.01,1266.09,1145.95,1263.68,1145.15,1260.37z"/>
	<path class="st6" d="M1157.24,1260.35c-1.26-5.21,1.02-9.29,5.84-9.3c4.8-0.01,9.01,4.01,10.29,9.27c1.26,5.21-0.99,9.29-5.84,9.3
		C1162.67,1269.63,1158.51,1265.61,1157.24,1260.35z M1169.27,1260.33c-0.79-3.26-2.99-5.72-5.38-5.71c-2.39,0-3.36,2.39-2.56,5.73
		c0.79,3.28,2.97,5.72,5.38,5.71C1169.12,1266.05,1170.07,1263.64,1169.27,1260.33z"/>
	<path class="st6" d="M1183.2,1255.2l-2.98,0.78l-1.61-3.23l4.84-1.55l2.72,0l4.38,18.08l-3.94,0.01L1183.2,1255.2z"/>
	<path class="st6" d="M1129.97,1300.71l-2.98,0.78l-1.61-3.23l4.84-1.55l2.72,0l4.38,18.08l-3.94,0.01L1129.97,1300.71z"/>
	<path class="st6" d="M1144.11,1305.79c-1.26-5.21,1.02-9.29,5.84-9.3c4.8-0.01,9.01,4.01,10.29,9.27c1.26,5.21-0.99,9.29-5.84,9.3
		C1149.55,1315.07,1145.39,1311.05,1144.11,1305.79z M1156.15,1305.77c-0.79-3.26-2.99-5.72-5.38-5.71s-3.36,2.39-2.56,5.73
		c0.79,3.28,2.97,5.72,5.38,5.71C1156,1311.49,1156.95,1309.08,1156.15,1305.77z"/>
	<path class="st6" d="M1208.34,1305.68c-1.26-5.21,1.02-9.29,5.84-9.3c4.8-0.01,9.01,4.01,10.29,9.27c1.26,5.21-0.99,9.29-5.84,9.3
		C1213.78,1314.96,1209.62,1310.94,1208.34,1305.68z M1220.38,1305.66c-0.79-3.26-2.99-5.72-5.38-5.71c-2.39,0-3.36,2.39-2.56,5.73
		c0.79,3.28,2.97,5.72,5.38,5.71C1220.23,1311.38,1221.18,1308.97,1220.38,1305.66z"/>
	<path class="st6" d="M1232.46,1305.64c-1.26-5.21,1.02-9.29,5.84-9.3c4.8-0.01,9.01,4.01,10.29,9.27c1.26,5.21-0.99,9.29-5.84,9.3
		C1237.9,1314.92,1233.73,1310.9,1232.46,1305.64z M1244.49,1305.62c-0.79-3.26-2.99-5.72-5.38-5.71c-2.39,0-3.36,2.39-2.56,5.73
		c0.79,3.28,2.97,5.72,5.38,5.71S1245.29,1308.93,1244.49,1305.62z"/>
	<path class="st10" d="M1177.53,1337.8c-1.26-5.21,1.02-9.29,5.84-9.3c4.8-0.01,9.01,4.01,10.29,9.27c1.26,5.21-0.99,9.29-5.84,9.3
		C1182.97,1347.08,1178.8,1343.06,1177.53,1337.8z M1189.56,1337.78c-0.79-3.26-2.99-5.72-5.38-5.71c-2.39,0-3.36,2.39-2.56,5.73
		c0.79,3.28,2.97,5.72,5.38,5.71C1189.42,1343.5,1190.36,1341.09,1189.56,1337.78z"/>
	<path class="st10" d="M1203.49,1332.65l-2.98,0.78l-1.61-3.23l4.84-1.55l2.72,0l4.38,18.08l-3.94,0.01L1203.49,1332.65z"/>
	<path class="st6" d="M1153.41,1337.84c-1.26-5.21,1.02-9.29,5.84-9.3c4.8-0.01,9.01,4.01,10.29,9.27c1.26,5.21-0.99,9.29-5.84,9.3
		C1158.85,1347.12,1154.69,1343.1,1153.41,1337.84z M1165.44,1337.82c-0.79-3.26-2.99-5.72-5.38-5.71c-2.39,0-3.36,2.39-2.56,5.73
		c0.79,3.28,2.97,5.72,5.38,5.71S1166.25,1341.13,1165.44,1337.82z"/>
	<path class="st6" d="M1217.64,1337.74c-1.26-5.21,1.02-9.29,5.84-9.3c4.8-0.01,9.01,4.01,10.29,9.27c1.26,5.21-0.99,9.29-5.84,9.3
		S1218.92,1342.99,1217.64,1337.74z M1229.68,1337.71c-0.79-3.26-2.99-5.72-5.38-5.71c-2.39,0-3.36,2.39-2.56,5.73
		c0.79,3.28,2.97,5.72,5.38,5.71C1229.53,1343.44,1230.48,1341.02,1229.68,1337.71z"/>
	<path class="st6" d="M1241.76,1337.69c-1.26-5.21,1.02-9.29,5.84-9.3c4.8-0.01,9.01,4.01,10.29,9.27c1.26,5.21-0.99,9.29-5.84,9.3
		C1247.2,1346.97,1243.03,1342.95,1241.76,1337.69z M1253.79,1337.67c-0.79-3.26-2.99-5.72-5.38-5.71c-2.39,0-3.36,2.39-2.56,5.73
		c0.79,3.28,2.97,5.72,5.38,5.71S1254.59,1340.98,1253.79,1337.67z"/>
	<path class="st6" d="M1256.58,1305.6c-1.26-5.21,1.02-9.29,5.84-9.3c4.8-0.01,9.01,4.01,10.29,9.27c1.26,5.21-0.99,9.29-5.84,9.3
		C1262.01,1314.88,1257.85,1310.86,1256.58,1305.6z M1268.61,1305.58c-0.79-3.26-2.99-5.72-5.38-5.71c-2.39,0-3.36,2.39-2.56,5.73
		c0.79,3.28,2.97,5.72,5.38,5.71C1268.46,1311.3,1269.41,1308.89,1268.61,1305.58z"/>
	<path class="st6" d="M1280.69,1305.56c-1.26-5.21,1.02-9.29,5.84-9.3c4.8-0.01,9.01,4.01,10.29,9.27c1.26,5.21-0.99,9.29-5.84,9.3
		C1286.13,1314.84,1281.96,1310.82,1280.69,1305.56z M1292.72,1305.54c-0.79-3.26-2.99-5.72-5.38-5.71c-2.39,0-3.36,2.39-2.56,5.73
		c0.79,3.28,2.97,5.72,5.38,5.71C1292.58,1311.26,1293.52,1308.85,1292.72,1305.54z"/>
	<path class="st6" d="M1921.7,993.8l-2.98,0.77l-1.61-3.23l4.84-1.55l2.72,0l4.38,18.08l-3.94,0.01L1921.7,993.8z"/>
	<path class="st6" d="M1935.85,998.88c-1.26-5.21,1.02-9.29,5.84-9.3c4.8-0.01,9.01,4.01,10.29,9.27c1.26,5.21-0.99,9.29-5.84,9.3
		S1937.12,1004.14,1935.85,998.88z M1947.88,998.86c-0.79-3.26-2.99-5.72-5.38-5.71s-3.36,2.39-2.56,5.73
		c0.79,3.28,2.97,5.72,5.38,5.71C1947.74,1004.58,1948.68,1002.17,1947.88,998.86z"/>
	<path class="st6" d="M1959.96,998.84c-1.26-5.21,1.02-9.29,5.84-9.3c4.8-0.01,9.01,4.01,10.29,9.27c1.26,5.21-0.99,9.29-5.84,9.3
		C1965.4,1008.12,1961.24,1004.1,1959.96,998.84z M1972,998.82c-0.79-3.26-2.99-5.72-5.38-5.71c-2.38,0-3.36,2.39-2.56,5.73
		c0.79,3.28,2.97,5.72,5.38,5.71C1971.85,1004.54,1972.8,1002.13,1972,998.82z"/>
	<path class="st6" d="M1984.08,998.8c-1.26-5.21,1.02-9.29,5.84-9.3c4.8-0.01,9.01,4.01,10.29,9.27c1.26,5.21-0.99,9.29-5.84,9.3
		C1989.52,1008.08,1985.35,1004.05,1984.08,998.8z M1996.11,998.78c-0.79-3.26-2.99-5.72-5.38-5.71c-2.39,0-3.36,2.39-2.56,5.73
		c0.79,3.28,2.97,5.72,5.38,5.71C1995.97,1004.5,1996.91,1002.09,1996.11,998.78z"/>
	<path class="st6" d="M2010.05,993.65l-2.98,0.77l-1.61-3.23l4.84-1.55l2.72,0l4.38,18.08l-3.94,0.01L2010.05,993.65z"/>
	<path class="st6" d="M1895.74,1042.25c-1.26-5.21,1.02-9.29,5.84-9.3c4.8-0.01,9.01,4.01,10.29,9.27c1.26,5.21-0.99,9.29-5.84,9.3
		C1901.17,1051.52,1897.01,1047.5,1895.74,1042.25z M1907.77,1042.22c-0.79-3.26-2.99-5.72-5.38-5.71s-3.36,2.39-2.56,5.73
		c0.79,3.28,2.97,5.72,5.38,5.71C1907.62,1047.95,1908.57,1045.53,1907.77,1042.22z"/>
	<path class="st6" d="M1921.7,1037.09l-2.98,0.78l-1.61-3.23l4.84-1.55l2.72,0l4.38,18.08l-3.94,0.01L1921.7,1037.09z"/>
	<path class="st10" d="M1935.85,1042.18c-1.26-5.21,1.02-9.29,5.84-9.3c4.8-0.01,9.01,4.01,10.29,9.27c1.26,5.21-0.99,9.29-5.84,9.3
		C1941.29,1051.46,1937.12,1047.43,1935.85,1042.18z M1947.88,1042.16c-0.79-3.26-2.99-5.72-5.38-5.71c-2.39,0-3.36,2.39-2.56,5.73
		c0.79,3.28,2.97,5.72,5.38,5.71C1947.74,1047.88,1948.68,1045.46,1947.88,1042.16z"/>
	<path class="st10" d="M1959.96,1042.14c-1.26-5.21,1.02-9.29,5.84-9.3c4.8-0.01,9.01,4.01,10.29,9.27c1.26,5.21-0.99,9.29-5.84,9.3
		C1965.4,1051.42,1961.24,1047.39,1959.96,1042.14z M1972,1042.12c-0.79-3.26-2.99-5.72-5.38-5.71c-2.38,0-3.36,2.39-2.56,5.73
		c0.79,3.28,2.97,5.72,5.38,5.71C1971.85,1047.84,1972.8,1045.42,1972,1042.12z"/>
	<path class="st10" d="M1984.08,1042.1c-1.26-5.21,1.02-9.29,5.84-9.3c4.8-0.01,9.01,4.01,10.29,9.27c1.26,5.21-0.99,9.29-5.84,9.3
		C1989.52,1051.38,1985.35,1047.35,1984.08,1042.1z M1996.11,1042.08c-0.79-3.26-2.99-5.72-5.38-5.71c-2.39,0-3.36,2.39-2.56,5.73
		c0.79,3.28,2.97,5.72,5.38,5.71S1996.91,1045.38,1996.11,1042.08z"/>
	<path class="st10" d="M2010.05,1036.95l-2.98,0.77l-1.61-3.23l4.84-1.55l2.72,0l4.38,18.08l-3.94,0.01L2010.05,1036.95z"/>
	<path class="st6" d="M2005.14,1287.13l-2.98,0.78l-1.61-3.23l4.84-1.55l2.72,0l4.38,18.08l-3.94,0.01L2005.14,1287.13z"/>
	<path class="st6" d="M2019.29,1292.21c-1.26-5.21,1.02-9.29,5.84-9.3c4.8-0.01,9.01,4.01,10.29,9.27c1.26,5.21-0.99,9.29-5.84,9.3
		C2024.73,1301.49,2020.57,1297.47,2019.29,1292.21z M2031.32,1292.19c-0.79-3.26-2.99-5.72-5.38-5.71c-2.38,0-3.36,2.39-2.56,5.73
		c0.79,3.28,2.97,5.72,5.38,5.71S2032.12,1295.5,2031.32,1292.19z"/>
	<path class="st6" d="M2043.41,1292.17c-1.26-5.21,1.02-9.29,5.84-9.3c4.8-0.01,9.01,4.01,10.29,9.27c1.26,5.21-0.99,9.29-5.84,9.3
		C2048.84,1301.45,2044.68,1297.43,2043.41,1292.17z M2055.44,1292.15c-0.79-3.26-2.99-5.72-5.38-5.71s-3.36,2.39-2.56,5.73
		c0.79,3.28,2.97,5.72,5.38,5.71C2055.29,1297.87,2056.24,1295.46,2055.44,1292.15z"/>
	<path class="st6" d="M1981.45,1316.56l-2.98,0.78l-1.61-3.23l4.84-1.55l2.72,0l4.38,18.08l-3.94,0.01L1981.45,1316.56z"/>
	<path class="st6" d="M1995.6,1321.64c-1.26-5.21,1.02-9.29,5.84-9.3c4.8-0.01,9.01,4.01,10.29,9.27c1.26,5.21-0.99,9.29-5.84,9.3
		C2001.04,1330.92,1996.87,1326.9,1995.6,1321.64z M2007.63,1321.62c-0.79-3.26-2.99-5.72-5.38-5.71c-2.38,0-3.36,2.39-2.56,5.73
		c0.79,3.28,2.97,5.72,5.38,5.71C2007.49,1327.34,2008.43,1324.93,2007.63,1321.62z"/>
	<path class="st6" d="M2019.71,1321.6c-1.26-5.21,1.02-9.29,5.84-9.3c4.8-0.01,9.01,4.01,10.29,9.27c1.26,5.21-0.99,9.29-5.84,9.3
		C2025.15,1330.88,2020.99,1326.86,2019.71,1321.6z M2031.75,1321.58c-0.79-3.26-2.99-5.72-5.38-5.71s-3.36,2.39-2.56,5.73
		c0.79,3.28,2.97,5.72,5.38,5.71C2031.6,1327.3,2032.55,1324.89,2031.75,1321.58z"/>
	<path class="st6" d="M2067.52,1292.13c-1.26-5.21,1.02-9.29,5.84-9.3c4.8-0.01,9.01,4.01,10.29,9.27c1.26,5.21-0.99,9.29-5.84,9.3
		C2072.96,1301.41,2068.8,1297.39,2067.52,1292.13z M2079.55,1292.11c-0.79-3.26-2.99-5.72-5.38-5.71s-3.36,2.39-2.56,5.73
		c0.79,3.28,2.97,5.72,5.38,5.71S2080.36,1295.42,2079.55,1292.11z"/>
	<path class="st6" d="M2093.49,1286.98l-2.98,0.77l-1.61-3.23l4.84-1.55l2.72,0l4.38,18.08l-3.94,0.01L2093.49,1286.98z"/>
	<g>
		<g>
			<path class="st18" d="M2418.67,1083.34c8.95-0.85,29.55,1.56,43.01,19.92c13.45,18.36,4.14,40.01,37.77,56.69
				c33.63,16.68,28.8,37.72,22.07,64.11s-34.93,58.29-68.56,56.74c-33.63-1.55-91.14-70.79-89.07-94.01
				c2.07-23.22,12.06-25.99,4.14-41.34C2355.62,1121.4,2378.64,1087.14,2418.67,1083.34z"/>
			<path class="st13" d="M2431.79,1193.47c0.17-0.24,0.25-0.38,0.24-0.39c-3.72-1.33-4.04-6.77-0.59-29.41l-1.79,0.08l-30.02,1.44
				c0,0-0.7,9.28-1.97,17.93c-0.25,1.72-0.53,3.42-0.82,5.01C2374.25,1210.62,2422.88,1220.79,2431.79,1193.47z"/>
			<path class="st19" d="M2370.43,1802.62h64.86c0,0,1.55-9.89-1.83-17.38c-3.25-7.2-8.3-11.64-8.76-17.15
				c-4.12,4.24-9.19,6.97-18.57,5.71c-1.15,1.86-7.42,11.83-11.25,14.59C2390.64,1791.43,2371.74,1790.35,2370.43,1802.62z"/>
			<path class="st14" d="M2446.56,1537.49c-6.04,14.91-10.69,28.47-9.23,40.42c0,0.03,0.01,0.05,0.01,0.06
				c0.17,1.33,0.4,2.62,0.72,3.9c21.28,85.11-8.89,195.93-8.89,195.93s-7.97,1.84-13.74,2.36c-10.22,0.91-11.71-2.13-11.71-2.13
				s-10.15-90.37-43.01-263.13c-4.74-24.95-6.61-38.76-8.32-60.94c-0.52-6.64-1.01-14.03-1.56-22.69
				c-1.49-23.28,2.04-62.47,19.51-72.76c7.95-4.7,18.77-3.4,33.32,8.05c1.15,0.91,2.24,1.99,3.52,2.91
				C2496.55,1433.79,2465.03,1491.99,2446.56,1537.49z"/>
			<path class="st15" d="M2437.33,1577.9c-1-3.51-33.15-115.82-33.69-124.34c-1.17-18.35,41.32,32.32,42.92,83.93
				C2440.52,1552.4,2435.87,1565.95,2437.33,1577.9z"/>
			<path class="st19" d="M2664.77,1666.12l-27-58.98c0,0-9.64,2.7-15.04,8.9c-5.19,5.95-8.95,4.89-20.78-3.32
				c4.45,6.88,5.05,10.93,7.81,19.98c2.17,0.27,14.54,12.24,27.21,15.53C2642.02,1649.55,2653.06,1670.04,2664.77,1666.12z"/>
			<path class="st14" d="M2381.74,1384.38c0,0,58.12,202.05,79.42,215.06c21.29,13.01,126.59,38.87,157.68,45.08
				c0,0,1.11-8.41-0.51-16.9c-0.36-1.88-3.57-8.67-3.57-8.67s-55.29-55.31-109.32-63.06c-11.32-1.62,4.54-178.3-72.21-185.23
				C2363.12,1364.33,2381.74,1384.38,2381.74,1384.38z"/>
			<path class="st13" d="M2295.58,1066.41c0,0,1.3-6.48,2.76-11.42c0.65-2.19-3.86-16.55-6.99-18.32
				c-3.12-1.77-11.25,7.91-8.95,15.33c1.18,3.82,3.12,16.23,3.12,16.23L2295.58,1066.41z"/>
			<path class="st13" d="M2563.96,1078.42c0.4,0.82,0.95,2.29,1.44,3.67c0.01-0.38,0.01-0.75,0.02-1.11
				c0.03-2.75,10.28-17.69,14.49-18.62c4.22-0.94,10.17,13.06,4.9,20.8c-2.7,3.97-10.87,18.14-10.87,18.14l-9.05-5.46
				c0,0-0.06-3.81-2.5-6.9c-1.23-1.56-1.28-8.89-1.71-12.08C2560.68,1076.85,2562.49,1075.4,2563.96,1078.42z"/>
			<path class="st20" d="M2399.63,1165.19c0,0-0.7,9.28-1.97,17.93c16.39,1.97,27.23-11.64,31.99-19.36L2399.63,1165.19z"/>
			<path class="st18" d="M2435.28,1159.96c0,0,11.47-13.3,15.57-25.52c2.92-8.73,3.3-42.62-30.79-42.8c0,0-9.84-0.49-19.87,4.31
				c-7.98,3.82-20.01,12.83-12.62,43.56l1.58,10.24L2435.28,1159.96z"/>
			<path class="st13" d="M2391.64,1172.5c0,0,41.84,6.93,45.76-19.19c3.92-26.12,11.95-42.83-14.6-48.36s-33.25,3.66-36.68,12.06
				C2382.7,1125.41,2380.85,1170.02,2391.64,1172.5z"/>
			<path class="st18" d="M2399.6,1101.3c0,0,11.12,32.53,28.07,39.69s25.3,3.57,25.3,3.57s-11.92-12.75-11.94-31.92
				C2441.03,1112.64,2410.43,1088,2399.6,1101.3z"/>
			<path class="st18" d="M2406.27,1104.38c0,0-7.71,2.03-14.56,10.31c-4.5,5.43-6.08,12.98-8.1,20.44c0,0-5.55-22.12,5.92-32.46
				C2401.7,1091.7,2406.27,1104.38,2406.27,1104.38z"/>
			<path class="st3" d="M2575.61,1101.42c0,0-9.19,75.05-28.57,92.99c-13.45,12.45-61.05,32.54-72.43,51.05
				c-1.35,2.21-3.01,8.47-4.32,17.77c-3.85,27.21-4.8,80.33,12.92,133.69c0.82,2.47,1.68,4.94,2.59,7.41
				c2.41,6.59-0.83,13.89-7.45,16.24c-8.33,2.96-20.58,6.68-35.05,9.17c-2.75,0.48-5.6,0.91-8.5,1.27
				c-39.93,5.07-66.94-4.3-80.67-11.23c-6.48-3.27-10.4-10.08-10-17.33c0.82-14.81,8.24-29.46,11.58-65.07
				c2.53-27.02-15.91-65.12-14.92-79.5c0.39-5.68,3.2-30.92,0.34-34.83c-18.99-26.08-50.93-51.06-55.83-74.87
				c-5.66-27.45-2-82.24-2-82.24c1.56-0.54,5.84-2.24,8.86-2.24c5.39-0.01,9.18,4.95,9.18,4.95s14.25,53.36,14.97,56.95
				c3.79,19.15,40.2,46.88,51.22,52.45c12.07,6.11,21.72,9.38,29.32,10.08c0,0-8.98,15.51,4.31,17.66
				c15.99,2.59,28.33-15.79,28.33-15.79s9.71,2.73,27.21,0.15c14.51-2.13,66.15-19.59,73.61-32.84
				c5.44-9.64,34.11-63.08,34.11-63.08s2.66-1.54,6.94,0.68C2575.59,1097.11,2575.61,1101.42,2575.61,1101.42z"/>
			<path class="st0" d="M2403.79,1158.31c0,0-1.79,3.61-4.2,3.68c-2.41,0.07-8.52-0.51-8.94-1.14c-0.42-0.62-1.43-4.4-1.43-4.4
				S2399.34,1156.05,2403.79,1158.31z"/>
			<path class="st6" d="M2483.22,1396.91c0,0-35.92-6.16-38.3-31.72c-2.54-27.24,25.36-102.02,25.36-102.02l0.02,0.06
				C2466.45,1290.43,2465.5,1343.56,2483.22,1396.91z"/>
		</g>
		<g>
			<path class="st10" d="M2395.68,767.88l-3.74-13.73c-4.01-14.72-16.56-25.53-31.72-27.32l-97.61-11.53l-7.32,61.94l-31.23,264.43
				l403.8,47.7l31.23-264.43l-228.5-26.99C2413.91,795.98,2400.1,784.08,2395.68,767.88z"/>
			<g>
				<path class="st0" d="M2300.07,920.97l2.78-23.53l86.79-26.4l-2.84,24.04l-60.42,16.89l54.83,30.5l-2.88,24.38L2300.07,920.97z"
					/>
				<path class="st0" d="M2478.71,853.04l21.99,2.6l-94.17,148.95l-21.99-2.6L2478.71,853.04z"/>
				<path class="st0" d="M2584.83,930.75l-2.78,23.53l-86.79,26.4l2.84-24.04l60.42-16.89l-54.83-30.5l2.88-24.38L2584.83,930.75z"
					/>
			</g>
		</g>
		<path class="st13" d="M2561.69,1086.93c0,0-1.19-10.4-2.22-12.34s1.55-2.5,3.75,1.94s6.6,3.1,8.79,7.5c2.2,4.4,0.26,5.56-2.46,5.3
			S2561.69,1086.93,2561.69,1086.93z"/>
		<path class="st13" d="M2296.31,1063.04c0,0,5.92-6.4,5.89-9.27c-0.03-2.87,4.14-9.96,2.97-11.25c-1.16-1.29-3.23,0.78-4.33,2.72
			c-1.1,1.94-5.63,1.82-6.66,7.12C2293.15,1057.65,2296.31,1063.04,2296.31,1063.04z"/>
	</g>
	<g>
		<g>
			<g>
				<g>
					<polygon class="st12" points="1358.83,1030.16 1512.16,1097.32 1512.16,1037.56 1432.27,1004.71 1512.16,971.86 
						1512.16,912.66 1358.83,979.82 					"/>
					<polygon class="st12" points="1653.13,871.27 1520.64,1148.22 1576.64,1148.22 1709.13,871.27 					"/>
				</g>
				<polygon class="st12" points="1719.39,912.66 1719.39,972.42 1799.28,1005.27 1719.39,1038.12 1719.39,1097.32 1872.72,1030.16 
					1872.72,979.82 				"/>
			</g>
		</g>
		<rect x="1520.64" y="1132.4" class="st12" width="56" height="15.81"/>
		<rect x="1682.97" y="855.46" class="st12" width="26.16" height="15.81"/>
	</g>
	<g>
		<g>
			<g>
				<polygon class="st21" points="1358.83,1014.35 1512.16,1081.51 1512.16,1021.75 1432.27,988.9 1512.16,956.04 1512.16,896.84 
					1358.83,964 				"/>
				<polygon class="st21" points="1653.13,855.45 1520.64,1132.4 1576.64,1132.4 1709.13,855.45 				"/>
			</g>
			<polygon class="st21" points="1719.39,896.84 1719.39,956.6 1799.28,989.45 1719.39,1022.31 1719.39,1081.51 1872.72,1014.35 
				1872.72,964 			"/>
		</g>
	</g>
	<polygon class="st6" points="2218.76,1455.03 2209.42,1455.03 2132.99,1163.39 2034.74,788.49 937.5,788.49 1103.71,1455.03 
		1091.85,1455.15 923.63,779.44 2042.46,778.47 2043.44,782.2 2141.66,1159.12 	"/>
	<polygon class="st3" points="2220.45,1461.53 2211.44,1462.74 2132.99,1163.39 2141.66,1159.12 	"/>
	<path class="st13" d="M1094.29,945.51c-2.05,2.35-2.31,4.97-1.3,7.77c0,0.01,0.01,0.03,0.02,0.04c1.88,5.18,8.07,10.97,15.27,16.75
		c0.92,0.74,1.74,1.42,2.45,2.04c0.19,0.16,0.37,0.33,0.55,0.49c0.15,0.13,0.28,0.26,0.42,0.38c6.71,6.19,4.19,7.6,16.24,20.16
		c13.75,14.3,23.21,14.56,25.9,13.26c2.28-1.11-2.35-8.7-7.48-17.22c-0.25-0.41-0.49-0.83-0.75-1.24c-0.68-1.13-1.36-2.28-2.04-3.42
		c-6.01-10.26-4.47-15.08-3.04-30.35c1.16-12.41,19.31-69.33,19.31-69.33l-26.34-4.54c0,0-7.93,45.32-16.67,52.3
		c-4.67,3.72-9.91,3.77-14.4,6.52c-0.32,0.19-0.63,0.39-0.93,0.59C1098.95,941.41,1096.35,943.16,1094.29,945.51z"/>
	<path class="st15" d="M1094.29,945.51c-2.05,2.35-2.31,4.97-1.3,7.77c0,0.01,0.01,0.03,0.02,0.04c2.3,5.18,8.34,10.93,15.29,16.69
		c0.91,0.75,1.71,1.45,2.42,2.1c0.19,0.16,0.37,0.33,0.55,0.49c0.15,0.13,0.28,0.26,0.42,0.38c6.71,6.19,4.19,7.6,16.24,20.16
		c13.75,14.3,23.21,14.56,25.9,13.26c2.28-1.11-2.35-8.7-7.48-17.22c-2.68-0.98-15.11-6.03-24.5-18.06
		c-8.28-10.56-13.8-24.13-19.43-32c-0.32,0.19-0.63,0.39-0.93,0.59C1098.95,941.41,1096.35,943.16,1094.29,945.51z"/>
	<path class="st13" d="M1306.71,929.06c1.63,8.13,13.22,6.78,26.17,3.61c12.95-3.16,9.87,0.6,28.3-1.44
		c18.43-2.04,24.01-8.91,24.58-11.65c0.5-2.43-8.6-3.29-18.37-4.41c-1.23-0.14-2.46-0.29-3.7-0.44c-11.03-1.38-19.1-8.5-29.12-14.34
		c-9.49-5.54-23.65-28.09-23.65-28.09l-25.28,2c0,0,13.26,20.15,18.39,28.9c3.02,5.15,2.86,11.96,2.48,17.22
		C1306.32,923.27,1306.14,926.2,1306.71,929.06z"/>
	<path class="st15" d="M1332.88,932.67c12.95-3.16,9.87,0.6,28.3-1.44c18.43-2.04,24.01-8.91,24.58-11.65
		c0.5-2.43-8.6-3.29-18.37-4.41l-0.09,0.19c0,0-11.05,7.84-26.39,8.2c-12.5,0.3-25.75-3.28-34.38-3.14
		c-0.2,2.86-0.38,5.78,0.19,8.65C1308.34,937.19,1319.93,935.84,1332.88,932.67z"/>
	<path class="st12" d="M1209.85,767.44l-23.63,63.58l-30.85,83.02c0,0-8.37,0.81-16.39-1.5c-7.38-2.13-15.85-7.71-15.85-7.71
		s8.57-89.14,24.54-140.31c4.09-13.13,8.68-23.76,13.75-29.74C1186.2,705.51,1209.85,767.44,1209.85,767.44z"/>
	<path class="st14" d="M1185.83,666.47c-15.48-4.99-59.63,1.42-103.98,10.1l-9.29-15.32l-95.8-7.48c0,0-31.61,70.1-14.31,114.77
		c2.54,6.57,7.6,10.78,16.21,10.91c0,0,1.4,0,1.4,0c0,0,57.02-0.03,75.53-0.03c47.64,0,100.82-32.75,107.7-34.12
		c11.26-2.25,15.77,20.27,27.03,43.92s105.85,104.73,105.85,104.73s14.54,0.14,20.54-2.11c6.46-2.42,8.82-5.57,8.82-5.57
		S1220.74,677.73,1185.83,666.47z"/>
	<path class="st21" d="M1040.82,369.62c-13.42-3.45-31.8-0.01-34.84,0.29c-36.45,3.59-48.7,44.25-43.18,75.79
		c5.09,29.11-9.68,37.17-26.79,60.16c-34.31,46.11-11.89,84.98,15.19,95c16.25,6.01,38.8-9.16,38.8-9.16
		c0.41,0.16,70.87-46.16,99.76-72.28C1137.86,500.62,1075.03,378.42,1040.82,369.62z"/>
	<path class="st13" d="M1046.2,502.98c0.96,3.37-14.99,9.58-27.16,7.3c-11.45-2.14-24.28-15.54-21.64-16.8
		c4.38-2.08,7.33-7.26,4.93-35.26l2.18,0.25l36.63,4.18c0,0,0.11,11.41,0.96,22.1C1042.83,493.72,1044.64,497.48,1046.2,502.98z"/>
	<path class="st20" d="M1041.16,462.65c0,0,0.11,11.41,0.96,22.1c-20.22,1.09-32.39-16.44-37.6-26.28L1041.16,462.65z"/>
	<path class="st13" d="M1048.72,472.21c0,0-47.66,4.7-50.13-25.03c-2.47-29.73-10.29-49.14,20.04-53.4
		c30.33-4.26,37.19,6.59,40.43,16.31C1062.3,419.83,1061.06,470.22,1048.72,472.21z"/>
	<path class="st21" d="M1043.62,389.1c0,0-6,36.32-33.15,44.93c-19.8,6.29-28.77,2.14-28.77,2.14s9.53-12.64,12.92-30.21
		c1-5.18,4.68-9.44,9.69-11.09C1018.38,390.24,1035.43,377.58,1043.62,389.1z"/>
	<path class="st21" d="M1034.63,396.84c0,0,8.98,2,16.94,13.59c4.35,6.33,9.39,22.3,8.53,29.37c0,0,8.34-33.61-3.82-46.11
		C1043.38,380.43,1034.63,396.84,1034.63,396.84z"/>
	<path class="st10" d="M960.38,600.63c0.85,3.61,1.58,6.93,2.17,9.99c0.97,4.94,1.64,9.21,2.11,12.97c1.46,11.72,1.02,18.67,2,26.27
		c0.55,4.25,1.55,8.71,3.56,14.3c1.97,5.44,53.77,10.3,83.23,8.34c9.36-0.61,16.49-1.93,19.02-4.11
		c10.51-9.13,9.46,10.95,10.9-85.13c0.7-46.86-39.77-88.6-39.77-88.6s-3.23,20.02-43.36-3.81c-1.43-0.83-17.23,22.57-32.44,51.38
		C951.05,574.08,955.65,580.81,960.38,600.63z"/>
	<path class="st21" d="M1186.22,831.02l-30.85,83.02c0,0-8.37,0.81-16.39-1.5c-7.38-2.13-15.85-7.71-15.85-7.71
		s8.57-89.14,24.54-140.31L1186.22,831.02z"/>
	<path class="st10" d="M1043.62,494.66c0,0,41.29,7,46.14,24.78c4.85,17.78,38.35,117.21,38.35,117.21s-25.96,8.86-35.65-0.84
		c-9.7-9.7-33.74-89.97-33.74-89.97L1043.62,494.66z"/>
	<path class="st13" d="M1211.94,613.79l9.78-3.88c0,0,5.88-1.3,9.06-0.31c3.18,1,11.13,0.9,11.17,2.2c0.04,1.3-9.06,5.36-9.06,5.36
		l-0.29-0.11c3.46,7.83,20.75,12.3,21.58,15.18c1.01,3.48-7.03,5.28-11.42,6.37c-4.38,1.09-15.12,0.98-20.41-4.6
		c-3.87-4.08-10.41-9.69-10.41-9.69V613.79z"/>
	<path class="st0" d="M1037.72,454.68c0,0,2,4.89,7.27,4.89c5.28,0,6.7-0.79,7.7-1.91c1-1.12,1.99-3.27,1.99-3.27
		S1045.94,452.67,1037.72,454.68z"/>
	<path class="st10" d="M1116.59,602.28l99.96,7.63c0,0,2.09,9.69-4.35,20.69c0,0-90.18,17.63-113.72,8.63
		c-23.54-9-20.88-51.47-20.88-51.47L1116.59,602.28z"/>
	<path class="st9" d="M964.66,623.59c1.46,11.72,1.02,18.67,2,26.27c37.49,0.12,87.62-28.95,87.62-28.95L964.66,623.59z"/>
	<path class="st9" d="M1054.27,596.32c0,0-58.41-1.74-68.25-34.94c-10.82-36.47-22.93,15-22.93,15l6.45,32.85h64.08L1054.27,596.32z
		"/>
	<g>
		<path class="st3" d="M1156.09,506.24l-3.16-7.82c-3.38-8.38-11.52-13.87-20.56-13.87h-58.22v36.95v157.73h240.85V521.5h-136.3
			C1168.77,521.5,1159.82,515.46,1156.09,506.24z"/>
		<g>
			<path class="st0" d="M1110.49,602.94V588.9l49.22-21.56v14.34l-34.37,14.14l34.37,14.13v14.54L1110.49,602.94z"/>
			<path class="st0" d="M1210.85,550.57h13.12l-45.05,94.17h-13.12L1210.85,550.57z"/>
			<path class="st0" d="M1278.68,588.9v14.03l-49.22,21.56v-14.34l34.37-14.14l-34.37-14.14v-14.54L1278.68,588.9z"/>
		</g>
	</g>
	<path class="st13" d="M1054.27,604.02l4.23-6.63c0,0,3.35-1.09,8.04-4.38c5.58-3.92,4.84-9.79,7.63-9.16l0.03,12.9l-0.3,0.04
		c11.97,3.2,25.97-0.28,26.25,2.7c0.77,8.2-5.57,11.89-10.88,14.46c-4.07,1.97-8.69,4.91-16.03,2.63
		c-5.37-1.67-13.82-3.37-13.82-3.37L1054.27,604.02z"/>
	<path class="st10" d="M1000.25,490.86c0,0-37.91,2.48-47.39,17.27c-9.48,14.79-21.23,89.86-16.3,115.64
		c4.93,25.78,126.34-4.93,126.34-4.93l-3.87-22.37c0,0-70.07,0.41-74.06-8.72C979.65,575.62,1000.25,490.86,1000.25,490.86z"/>
	<path class="st13" d="M1183.26,521.42c-0.33,0.98,5.7,10.92,14.31,9.19c5.37-1.08,12.35-12.63,6.21-15.18
		C1193.56,511.17,1184.13,518.79,1183.26,521.42z"/>
</g>
</svg>
